/* XPM */
static char *a8fb4a644e3a4043bb1da0e8f627b3be[] = {
/* columns rows colors chars-per-pixel */
"52 52 200 2 ",
"   c black",
".  c #103F1B",
"X  c #0A4A0E",
"o  c #0F4D12",
"O  c #0C441B",
"+  c #0C4A1B",
"@  c #134717",
"#  c #134E14",
"$  c #18421E",
"%  c #12491F",
"&  c #1C4A19",
"*  c #07561F",
"=  c #145115",
"-  c #12511D",
";  c #195718",
":  c #1C5B1D",
">  c #225D1E",
",  c #285F1C",
"<  c #0C6818",
"1  c #136417",
"2  c #16631B",
"3  c #1B661C",
"4  c #14691A",
"5  c #1D6A1E",
"6  c #167417",
"7  c #1B701F",
"8  c #23631E",
"9  c #28631F",
"0  c #236C1D",
"q  c #23721F",
"w  c #104720",
"e  c #144C24",
"r  c #1B4D26",
"t  c #0C5423",
"y  c #0D5C25",
"u  c #165127",
"i  c #1B5523",
"p  c #1B5E22",
"a  c #14572B",
"s  c #1E552D",
"d  c #105E2A",
"f  c #1D5B2A",
"g  c #195730",
"h  c #1C5937",
"j  c #225425",
"k  c #245D24",
"l  c #2A5827",
"z  c #225C2C",
"x  c #295E2D",
"c  c #245A31",
"v  c #2B5D32",
"b  c #275F3A",
"n  c #0D6725",
"m  c #146426",
"M  c #1D6325",
"N  c #106A26",
"B  c #1D6A24",
"V  c #14642B",
"C  c #1D652B",
"Z  c #156A2B",
"A  c #1C6A2B",
"S  c #1E7222",
"D  c #1E7C24",
"F  c #1C722E",
"G  c #166430",
"H  c #1A6533",
"J  c #166932",
"K  c #1C6A32",
"L  c #1B633C",
"P  c #1E6C38",
"I  c #1D7233",
"U  c #226425",
"Y  c #2A6524",
"T  c #226A23",
"R  c #2A6A24",
"E  c #23652A",
"W  c #2A652B",
"Q  c #246A2C",
"!  c #2A6B2D",
"~  c #306726",
"^  c #306A20",
"/  c #3B6F25",
"(  c #326D2B",
")  c #227425",
"_  c #2A7423",
"`  c #23722C",
"'  c #2B722D",
"]  c #247B28",
"[  c #2C792C",
"{  c #33742E",
"}  c #377B2E",
"|  c #236632",
" . c #2C6534",
".. c #256B33",
"X. c #2B6D32",
"o. c #2E603A",
"O. c #256A39",
"+. c #2A6E3A",
"@. c #316534",
"#. c #326D33",
"$. c #33663A",
"%. c #336C3B",
"&. c #3C6E3D",
"*. c #257233",
"=. c #2C7334",
"-. c #207935",
";. c #2D7A34",
":. c #25733C",
">. c #2C733B",
",. c #267A3B",
"<. c #2D7A3C",
"1. c #327435",
"2. c #3A7534",
"3. c #337A34",
"4. c #3A7934",
"5. c #337639",
"6. c #3B753A",
"7. c #347A3C",
"8. c #3B7B3C",
"9. c #42733D",
"0. c #407D3D",
"q. c #286A45",
"w. c #3C6E4A",
"e. c #277541",
"r. c #2A7642",
"t. c #2D7B41",
"y. c #2D764B",
"u. c #357342",
"i. c #3B7542",
"p. c #337B43",
"a. c #3B7B43",
"s. c #3F714D",
"d. c #347A48",
"f. c #3C7B49",
"g. c #367E50",
"h. c #3A7F52",
"j. c #4A6B4E",
"k. c #407547",
"l. c #427C44",
"z. c #40724F",
"x. c #547B4E",
"c. c #466D54",
"v. c #437551",
"b. c #487055",
"n. c #477956",
"m. c #497B57",
"M. c #48725C",
"N. c #4A7C59",
"B. c #537455",
"V. c #53795C",
"C. c #5B7C5C",
"Z. c #009000",
"A. c #19811E",
"S. c #238027",
"D. c #25832A",
"F. c #28862C",
"G. c #2B8232",
"H. c #2D803A",
"J. c #368534",
"K. c #3E8937",
"L. c #34823B",
"P. c #3A843D",
"I. c #358A38",
"U. c #41823B",
"Y. c #49943F",
"T. c #388042",
"R. c #34864A",
"E. c #3F925A",
"W. c #50824D",
"Q. c #4F815C",
"!. c #50825D",
"~. c #449C52",
"^. c #538260",
"/. c #59876A",
"(. c #609A67",
"). c #618770",
"_. c #6A9676",
"`. c #71957B",
"'. c #729A7D",
"]. c #759C81",
"[. c #7B9F85",
"{. c #7EA789",
"}. c #7DB28D",
"|. c #82AA8D",
" X c #8BB685",
".X c #86AF91",
"XX c #93A996",
"oX c #8DB495",
"OX c #95B296",
"+X c #9AB195",
"@X c #91B699",
"#X c #94BA9D",
"$X c #9DBD9C",
"%X c #A2BC9F",
"&X c #98BCA2",
"*X c #97C98A",
"=X c #A3C89C",
"-X c #99C2A4",
";X c #A0C4AA",
":X c #C8F8C8",
/* pixels */
"XX)./.^.V.C.C.B.b.b.v.z.w.s.m.!.m.s.n.N.Q.!.Q.Q.m.v.n.s.z.n.m.N.m.z.w.w.v.n.m.v.s.w.j.j.c.M.V.B.x.W.(._.",
"].q.h.r.+.%. .z u a y y V P e.e.K y t y V H H V y * V t y V P e.e.H d V P :.:.P G V x s g h b $.1.1.*.O.",
"}.g.E.R.<.7.5...A I Z m Z -.t.t.-.K Z I ,.t.<.-.K Z Z m Z Z I t.<.Z m Z I ,.<.I Z Z Q C H P +.7.8.L.~.R.",
"}.| R.,.` ` ` ` *.-.*.E M E Q *.*.=.Q Q *.5.5.Q M M Q ' =.=.=.7.5.E M T *.7.8.=.Q Q =.Q H K +.X.' [ I.>.",
"oXi p.=.T 8 R ' ;.H.! U > k U k W 1.6.6.8.0.8.1.! W ( 1.8.6.1.8.6.Y Y Y ( 8.0.6.1.6.2.Q M C | U 8 0 ;.*.",
"OXv a.1.Y > Y { 7.7.W k k Y Y U ! 6.8.6.6.6.2.! U U ! 1.8.6.1.8.4.Y U U ! 6.8.6.6.8.8.! M |  .l , R 3.6.",
"+Xl i.#.Y Y ~ ( 1.' ! ! ! ! W U ! 7.7.5.1.5.1.! Q W ! 6.5.5.5.5.5.T U U ! 1.7.5.=.! ( W E | @.@.( R 1.@.",
"XX$  .W U Y Y W Q E <.<.<.=.A C *.7.<.<.7.p.7.*.C m Q 7.<.<.7.<.7.Q M A *.<.7.=.Q B Y E C | $.6.2.' A E ",
"OX. z C U U U U M m 7.7.7.*.C m Q <.<.<.7.T.7.*.C m Q 7.<.7.7.<.7.Q M A *.7.7.=.A M M M A H +.f.8.;.m C ",
"@Xw O.K C E E C Z Z >.p.p.X.C M ..>.      p.5.X.E E Q 7.7.      5.E E E X.5.7.=.Q Q 3 A J J :.f.8.-.n J ",
"oXu d.*.C M E A Z Z #.a.a.1.E E W     :X:X  5.X.E U ! 8.  :X:X    W E W X.6.8.5.! W 3 A Z J :.p.7.` n J ",
"@Xc f.=.M U E C m Z #.8.a.#.W E E   :XZ.                    Z.:X  X.U W #.a.a.6.W k 8 B m H +.a.8.-.m H ",
"$Xv f.X.W W ! U M Z ' 7.8.' T Q T   Z.      Z.:X:X:X:XZ.      Z.  Q M E X.5.7.=.Q E ^ Y M | %.9.6.1.M | ",
"$Xj i.#.#.2.#.W M A =.L.L.=.Q =.=.      Z.Z.:X:X:X:X:X:XZ.Z.      M A M A Q *.*.=.=./ Y U | &.9.2.{ p  .",
"-Xs f.7.3.8.6.X.C C 1.7.7.7.a.8.=.Q   Z.Z.Z.Z.:X:X:X:XZ.Z.Z.Z.  E p Q U M M M Q =.a.6.! B B X.i.a.Q 3 U ",
"-Xc p.5.3.8.6.! C C 5.7.7.7.7.7.=.E   Z.Z.Z.Z.Z.Z.Z.Z.Z.Z.Z.Z.  Q U E U M E E Q =.a.6.! B B X.u.a.' 5 U ",
"#Xu >.=.1.4.5.! C C =.=.X.=.7.7.=.          Z.Z.Z.Z.Z.Z.          E Q Q Q X.X.X.=.5.6.Q 3 B X.u.a.=.3 8 ",
"oXO ..Q =.4.5.! C K E U U ! 5.7.=.  Z.:XZ.    Z.Z.Z.Z.    Z.:XZ.  U E E X.1.5.5.5.5.6.U 2 B =.u.i.=.3 8 ",
".XO E Q =.4.1.W C K M p M X.7.7.=.  :X:X:X    Z.Z.Z.Z.    :X:X:X  M p M Q 5.a.8.7.7.6.U 2 B =.a.a.' 3 U ",
"|.+ C Q 1.4.5.W C K E M E =.7.7.=.  Z.:XZ.    Z.Z.Z.Z.    Z.:XZ.  Q Q Q =.7.8.7.=.=.6.Q B Q =.f.a.Q 3 8 ",
"{.w C Q 3.8.5.W C K Q U E =.7.7.5.          Z.Z.Z.Z.Z.Z.          =.7.5.5.7.7.=.E M X.=.;.=.=.a.f.' 3 : ",
"|.w E ..7.0.5.W C K E M U X.5.7.7.  Z.Z.Z.Z.Z.        Z.Z.Z.Z.Z.  =.7.5.5.7.5.X.E U W 5.P.7.>.a.f.=.3 8 ",
"'.e | Q =.4.5.! E K Q E M Q 7.7.1.  :XZ.Z.:X            :XZ.Z.:X  7.7.5.7.5.7.1.M E W 7.3.;.>.u.f.=.3 ; ",
"'.e | E ! ! ! W C K Q E M ! 7.7.=.  :XZ.Z.:X:X        :X:XZ.Z.:X  5.7.5.7.5.7.5.M Q k 5.3.;.X. .%.Q T ; ",
"'.e | E U U U p C K Q E U X.7.7.=.  :XZ.Z.:X:X        :X:XZ.Z.:X  =.7.5.7.5.7.5.M E k 7.L.;...z | M T : ",
"'.e E E U U U U E ..Q E E ! 5.5.=.  :XZ.Z.Z.            Z.Z.Z.:X  1.7.5.7.5.7.1.M E W 8.7.<.X.|  .M T : ",
"'.e C Q ! ( #.X.>.>.Q E M E X.! X.8.  :XZ.Z.            Z.Z.:X  U 1.7.5.7.5.7.5.M E W 1.` *.>.+.u.X.T : ",
"'.u | *.3.4.8.8.p.p.E E M M E U Q 7.  :XZ.Z.            Z.Z.:X  M =.8.7.7.5.7.5.M Q k W M A >.u.f.=.M : ",
"'.u | *.3.4.6.8.p.p.Q Q U U E M Q 7.  Z.:XZ.Z.        Z.Z.:XZ.  M 1.7.5.7.=.5.=.M Q E W 2 A >.u.f.=.M : ",
"'.u E ..' { 1.5.p.t.Q ! Q Q Q E Q 7.5.  :X:XZ.Z.    Z.Z.:X:X  U E 5.7.1.1.X.=.X.M E X.X.E *.>.u.u.*.M : ",
"`.s | E T 8 8 1.8.<.=.7.a.1.M : Q 8.7.  Z.:XZ.Z.    Z.Z.:XZ.  U U 5.7.5.X.E E E E M Y 5.<.p.p.7.8.' M f ",
"`.e | M U 8 Y 1.8.=.5.7.7.*.M M Q 7.8.5.  :X:XZ.Z.Z.Z.:X:X  Q E M =.7.5.X.E M E E M 9 5.<.p.p.7.8.' M i ",
"'.e ..E U 8 R 1.8.=.5.7.5.*.Q Q !         :X:XZ.    Z.:X:X        =.7.5.X.E M Q Q Q Y 7.7.p.>.=.3.' B f ",
"].e +.E U Y R 1.8.=.1.7.8.5.7.5.    Z.Z.  :X:XZ.    Z.:X:X  Z.Z.    8.7.X.E E ! 1.5.( 8.p.t.+.E ! T M i ",
"[.w ..M U Y Y 1.8.<.1.7.8.7.8.T.  Z.Z.    :XZ.        Z.:X    Z.Z.  a.7.X.U M X.7.a.2.8.7.t...p U 5 T f ",
"|.e | M T R R ' 5.<.1.7.7.=.5.8.        :XZ.            Z.:X        7.5.X.M M Q 1.7.2.8.<.p.+.M U T Q z ",
"#Xs +.Q ' { ! ! *.Q =.8.8.=.=.8.  :X:X:XZ.                Z.:X:X:X  X.X.Q M M Q =.7.2.7.>.t.>.U T T 2 f ",
";Xs p.7.P.U.{ Q M m X.8.T.5.7.  :X:X:XZ.  Z.:X:X:X:X:X:XZ.  Z.:X:X:X  E E E E X.5.7.2.5.*.t.>.M U 5 B | ",
"&Xs 5.5.3.4.( U M C 1.7.7.5.7.  :XZ.    Z.:XZ.        Z.:XZ.    Z.:X  Q E E E Q 7.7.{ 5.<.>...W U T M f ",
"&Xr X.=.3.4.2.! C C 1.7.7.1.X.    Z.Z.:X:X    =.X.! Q     :X:XZ.Z.    ! E E E Q 5.5.2.7.p.>...E U T M f ",
"@Xw E Q { 4.1.Q M m 1.8.8.=.U M           8.5.X.E U E E E           M Q U E E Q 7.7.2.6.p.>...E U 5 B f ",
"@XO C Q { 4.1.Q M V 1.7.7.*.M M ! 8.7.5.7.8.5.! E U E E E M 7.5.1.! p E M E Q X.8.8.{ 7.p.t...U U 5 E z ",
"oXO Q ' 3.4.4.=...*.*.*.*.! U M Q 7.5.1.5.7.5.X.E U E E Q M 7.5.5.=.Q X.E E E Q 5.=.( 1.p.>...U U 0 Q f ",
"oXO E Q { 4.4.1.>.p.Q U U Q E M Q 5.5.5.7.8.5.! E U E E Q M 7.7.7.=.5.7.! Q E M Q U Y =.7.>...U U T B f ",
"@X% E Q ' 4.6.1.7.p.Q M M Q Q U Q 5.5.5.7.7.1.! U M E E Q M 7.7.7.5.7.8.X.Q M M E M Y 1.p.t.+.E U T E f ",
"#Xe Q Q { 4.4.5.7.p.X.U U ! ! E ! 7.5.1.5.7.5.! E U E E Q M 7.7.7.5.1.5.Q E E M ! E R 1.p.p.+.E U T Q z ",
" X: ) ] ) m A G.F.A.A C M B M 3 m ) 4 S ] S.S.6 < 6 N I N < F F m *.,.t.t.y.y.q.L L 4 D F.D.S M B 7 D.) ",
"$Xk 3.*.E i E >.L.G.X...Q E M M M M M ! 1.8.P.' 3 M C ..M M Q U M 1.5.8.7.u.p.>.| | E ;.L.<.Q W W Q P.=.",
"%X& l.6. .c o.%.8.P.Q Q E C E Q | W W $.%.i.k.%.v x W @.W W W > > 6.{ 4.{ { 3.' U T v %.p.5. .v o.X.=.6.",
"=XY U.2.X.@.%.@.! Q 5 5 5 B T E ! 1.5.6. . .$.@.x v  . .x W ! > 8 4.4.3.[ _ _ q 5 5 v  .X.X. .$.%.1.P.P.",
"*X_ Y.K.8.l.l.#.T 3 ) 5 S ) B 3 B 3.3.3.Q p U E U W O.E f ..X.M E 7.;.[ T 3 3 4 1 4  .W E Q 1.i.8.J.I.J.",
" XY } { ! @.v j # = = # # = # X = U U U = X o = o = t + + - - + - f O.| z - i i i j r @ o = k v W U _ 3."
};
