/* XPM */
static char *fd506d1316e643a7a56795dc72e1f246[] = {
/* columns rows colors chars-per-pixel */
"52 52 238 2 ",
"   c #000401",
".  c #020B00",
"X  c #170F0A",
"o  c #051304",
"O  c #0B1606",
"+  c #0C1906",
"@  c #0D140C",
"#  c #051808",
"$  c #041B0A",
"%  c #0C1C0C",
"&  c #141204",
"*  c #1C1305",
"=  c #161905",
"-  c #191906",
";  c #13160B",
":  c #1B150C",
">  c #131B0D",
",  c #1B1B0E",
"<  c #0D1211",
"1  c #0F1E13",
"2  c #0E1C1C",
"3  c #141614",
"4  c #1A1613",
"5  c #141C13",
"6  c #1C1B14",
"7  c #1A151B",
"8  c #151C1A",
"9  c #1E1E1D",
"0  c #24140C",
"q  c #231B0C",
"w  c #221A11",
"e  c #2B1B12",
"r  c #211D1C",
"t  c #2A1F1D",
"y  c #042402",
"u  c #0A2303",
"i  c #012A03",
"p  c #002309",
"a  c #0A230B",
"s  c #012B0B",
"d  c #0B290E",
"f  c #13220E",
"g  c #1F220D",
"h  c #142B0E",
"j  c #073607",
"k  c #0C340D",
"l  c #0D2312",
"z  c #052912",
"x  c #0B2914",
"c  c #142314",
"v  c #1B2214",
"b  c #142A15",
"n  c #1B2C16",
"m  c #152319",
"M  c #1C211C",
"N  c #162C1B",
"B  c #1C2B1C",
"V  c #063315",
"C  c #0E3314",
"Z  c #0D3219",
"A  c #0D3A1B",
"S  c #143313",
"D  c #183416",
"F  c #173A10",
"G  c #1A3B14",
"H  c #13311B",
"J  c #1B331D",
"K  c #143D1C",
"L  c #1B3B1D",
"P  c #23230E",
"I  c #2D270D",
"U  c #222114",
"Y  c #2C2514",
"T  c #22211D",
"R  c #2D241A",
"E  c #232C1C",
"W  c #2C2A1E",
"Q  c #322815",
"!  c #32261A",
"~  c #352C1C",
"^  c #3B2D1B",
"/  c #22331D",
"(  c #253C1A",
")  c #35321B",
"_  c #3D331C",
"`  c #1C1722",
"'  c #1E1E21",
"]  c #161D28",
"[  c #1C1E2B",
"{  c #211D21",
"}  c #241D2D",
"|  c #152322",
" . c #1C2221",
".. c #1E2A22",
"X. c #1E232B",
"o. c #1C3423",
"O. c #1A3C27",
"+. c #1C3C24",
"@. c #1F322A",
"#. c #222322",
"$. c #2A2722",
"%. c #222B22",
"&. c #2D2C22",
"*. c #23232A",
"=. c #29222B",
"-. c #222929",
";. c #2E2E2A",
":. c #362F21",
">. c #392F23",
",. c #332D29",
"<. c #243423",
"1. c #293526",
"2. c #213E24",
"3. c #2A3D24",
"4. c #233329",
"5. c #2A3628",
"6. c #243D2A",
"7. c #2B3D2C",
"8. c #353423",
"9. c #3C3324",
"0. c #3C3923",
"q. c #32332E",
"w. c #3C3429",
"e. c #323D2B",
"r. c #3B3A2F",
"t. c #2E2E36",
"y. c #283231",
"u. c #2D3D33",
"i. c #343E33",
"p. c #353837",
"a. c #41351C",
"s. c #433C1D",
"d. c #443527",
"f. c #453C24",
"g. c #4B3C26",
"h. c #41352A",
"j. c #443B2B",
"k. c #4C3D2B",
"l. c #503E2D",
"z. c #453E32",
"x. c #4A3D32",
"c. c #473D38",
"v. c #513F37",
"b. c #10450D",
"n. c #0E4612",
"m. c #114816",
"M. c #13411E",
"N. c #1C451E",
"B. c #1B4B1D",
"V. c #1C531D",
"C. c #24431D",
"Z. c #214B1E",
"A. c #154521",
"S. c #1D4423",
"D. c #154D22",
"F. c #1C4924",
"G. c #1D452A",
"H. c #1E4A2B",
"J. c #1B5121",
"K. c #1B5126",
"L. c #1F4D30",
"P. c #234224",
"I. c #294425",
"U. c #234B24",
"Y. c #24432B",
"T. c #2B442C",
"R. c #234B2C",
"E. c #2A4C2C",
"W. c #32452C",
"Q. c #255325",
"!. c #24532C",
"~. c #2C522C",
"^. c #34552D",
"/. c #325C2E",
"(. c #274134",
"). c #2C4332",
"_. c #234D32",
"`. c #2B4D32",
"'. c #2D493A",
"]. c #324333",
"[. c #3B4134",
"{. c #314A32",
"}. c #374939",
"|. c #265635",
" X c #2D5431",
".X c #2B5D32",
"XX c #335235",
"oX c #325E32",
"OX c #3F5E35",
"+X c #39533C",
"@X c #355D3A",
"#X c #3A5C3B",
"$X c #2A6528",
"%X c #2E612C",
"&X c #35672C",
"*X c #2A6333",
"=X c #2C6A32",
"-X c #2F673A",
";X c #356335",
":X c #3B6434",
">X c #376B36",
",X c #356C34",
"<X c #35643B",
"1X c #3B643B",
"2X c #3B6B3B",
"3X c #3A7439",
"4X c #4B4325",
"5X c #45422B",
"6X c #4B422D",
"7X c #4F492F",
"8X c #52432D",
"9X c #53492E",
"0X c #444433",
"qX c #4D4332",
"wX c #4E4934",
"eX c #47423C",
"rX c #4D4639",
"tX c #4C4A3B",
"yX c #524332",
"uX c #524A36",
"iX c #524B39",
"pX c #4A603A",
"aX c #43693D",
"sX c #334441",
"dX c #365D40",
"fX c #3C6443",
"gX c #3C6A42",
"hX c #386847",
"jX c #3B7142",
"kX c #474645",
"lX c #4C5A49",
"zX c #436444",
"xX c #436B43",
"cX c #45674B",
"vX c #4B6B4D",
"bX c #526842",
"nX c #41714B",
"mX c #506E52",
/* pixels */
"5.|.!.!.!.R.O.Z H $ x z s K F.K k i y i i i j j b.V.V.V.V.n.k k C V V A _.|.|.V A s s i s V K M.M.L P.T.",
"[.=X=X*X-XhX|.S.H.G._.R.H.<XnX<XK.U.U.Z.B.Z.Q.%X,X,X,X,X;XQ.N.N.N.G.G.L.hXhXhXM.A.F.F.F.F.!.<XgX<XfX@XP.",
"1.=X,X=X>XjX.XK S.L Y.P.F.@XgX;XU.6.Y.P.2.P.!.:X>X2X:XgX1X XP.Y.Y.R.Y.R.dXfXfXR.R.R.U.S.N.~.1XxXaXgXgXU.",
"1.$X&X%X%X:XC.y u J T.I.L P.U.G j 3 8 5 % a N 2.Y.P.P.Y.Y.N l m m y a d L 2.T.D P.C.S u y G ^.OX^.*X.X!.",
"7.&X3X&X:XaXC.y u h 3.T.( C.C.C.F ` ' ' 8 8 ..7.).7.7.).u...8 ' ] a h n 3.3.W./ W.W.( u u ( pXbXpXjX*X!.",
"<./.:X1XzXvX<.% M y.p.p.sXsXu.(.O.U ; ; 5 v B <.7.].}.}.5.B v 6 , ' 9 %.i.[.i.i.kXt.t. .m J xX>X$X=X<X2.",
"B B.Q./.#XcX<.5 | 8  .8 M | m N l 6 6 W r.[.5.E B c v B E 8.[.0Xr.3 3 3 B B v 6 T *.*.8 5 J xX2X,XV.!.H ",
"c n.B.oXzXmX7.5 5 9 #.3 6 M M B 5 * q 8.tXtXe.v + v > ; v 8.rX0X9.' 9 T U v v , 6 T #.9 m J fX;X;Xn.B.d ",
"a m.J.;XfXvX6.c 5 3 r 4 : : : w & * q ~ 5X0X8.P = g - - P 0.wXqXd.X 4 , ; & - - : 6 6 4 M <.zX1X>Xm.B.l ",
"% D.D.!.R.XXJ v v W h.h.h.9.9.j.9.^ ^ d.j.5Xf.0.) ) ) ) _ f.6X8Xk.,.w.w.8.8.0.0.0.9.R 6 6 B #XXX XV.F.x ",
"% D.A.R.U.T.n f & R x.yXv.k.k.yXk.yX8X8XqXyXwX6X6XuXuXuXyXk.k.k.k.v.v.0XqX6X5X4X5XuX9., ; c ).6.Y.J.F.l ",
"> F.A.R.T.T.E v & ! k.yXyXl.k.9Xg.yXyXk.k.6X6X6Xj.j.6X6X6Xk.k.yXyXv.x.qXuX6X4X4X8Xf.Q * , B }.(.'.B.S.l ",
"c R.+.2.J 1.E 8.Q ^ k.l.k.g.g.4Xa.h.d.h.h.h.j.h.w.j.w.w.w.h.h.h.h.j.h.h.6X6Xf.s.4X4X_ Q W W i.@.@.B.S.c ",
"c T.7.n c v 8.iXqXk.8X8Xk.f.wX7XI w w w w w w w 6 , , 6 w w w w w 0 0 e d.6Xf.a.s.4X8X6XwXr.M 8 2 F.`.m ",
"% }.i.E , , 8.iX6Xk.k.6X6X5X6X5XP r r r r r 6 6 6 6 6 6 r r r r r e e ! j.iXwX6X9X4X9X4XqXw.9 9 | !.{.m ",
"% i.q.T , w ) uXk.uXk.qXwX0X0X[.E r r r r r M M M M M M 9 9 9 9 9 e w R w.0Xj.h.f.a.g.4XqX9.6 9 ' K +.@ ",
". M M 6 6 U :.uXj.9.q q U , v v > ' ' ' ' ' ' ' ' ' ' ' ' ' ' ' ' w w w T $.T U Y q _ k.uXw.6 6 ' k N @ ",
"  O 5 5 6 w :.wXx.j.0 q w 6 M M #.' 9 9 ' ' ' ' ' ' ' ' ' ' ' ' ' r r 6 9 9 6 4 : * ^ k.uX9.6 6 9 y a   ",
"o c B m 5 , &.tXrXh.* w r 6 #.7  .9 9 9 9 9 9 9 9 9 9 9 9 9 9 9 9 6 6 9 ' ] ' ' r q 9.qXwX:.: 6 r d l   ",
"> 6.6.N 5 > &.tXrXh.* r r 9 =.` [ 9 9 9 9 9 9 9 9 9 9 9 9 9 9 9 9 6 M  .] ] X.*.#.w w.qXuX>.: 6 6 T.).3 ",
"%.'.(.N c v 8.tXz.z.: t r 7 =.` } M T M M M r r r r r r M M M M M M #.X.] ] [ [ ' : >.qXuX9.q 6 6 Y.7.3 ",
"| P.T.b c U r.eXkXq.#.6 M T 6 6 6 9 9 9 9 9 9 9 9 9 9 9 9 9 9 9 9 9 9 9 9 9 9 9 9 3 ;.kXkXp.T 6 6 H.Y.% ",
"N P.).b f , &.,.,.;.T 6 M M 6 6 r 9 9 9 9 9 9 9 9 9 9 9 9 9 9 9 9 9 9 9 9 9 9 9 9 9 $.q.q.#.6 6 6 H.G.+ ",
"b Y.{.b c ; T r 6 T 6 6 M M 6 6 T 9 9 9 9 9 9 9 9 9 9 9 9 9 9 9 9 9 9 9 9 9 9 9 9 #.T 6 6 6 6 6 9 R.Y.% ",
"b Y.).b v 6 T r 4 9 6 9 M 9 6 6 T 9 9 9 9 9 9 9 9 9 9 9 9 9 9 9 9 9 9 9 9 9 9 9 9 T 6 6 6 6 9 6 6 R.Y.% ",
"h Y.).c M 6 T r r 9 9 M  .9 6 6 r 9 9 9 9 9 9 9 9 9 9 9 9 9 9 9 9 9 9 9 9 9 9 9 9 9 9 9 9 T T 6 6 G.Y.% ",
"h Y.).c v 6 T r #.{ '  . .9 9 9 r 9 9 9 9 9 9 9 9 9 9 9 9 9 9 9 9 9 9 9 9 9 9 9 9 9 T T 9 9 6 6 9 _.T.> ",
"n Y.).c M 6 r r { { ' ' 9 ' ' 9 r 9 9 9 9 9 9 9 9 9 9 9 9 9 9 9 9 9 9 9 9 9 9 9 9 9 ' ' 9 9 9 9 9 `.T.> ",
"n 6.).m M 6 r r { { ' ' 9 9 ' { r 9 9 9 9 9 9 9 9 9 9 9 9 9 9 9 9 9 9 9 9 9 9 9 9 9 9 ' #.#.9 9 9 G.6.O ",
". x o.m M #.r { ` ' ' ' ' ' ' ' { 9 9 9 9 9 9 9 9 9 9 9 9 9 9 9 9 9 9 9 9 9 9 9 9 9 9 9 9 9 9 9 9 Z J . ",
"  l N 1 5 9 9 { { ' ' ' ' ' ' ' { 9 9 9 9 9 9 9 9 9 9 9 9 9 9 9 9 9 9 9 9 9 9 9 9 9 9 9 9 9 9 9 9 p l   ",
"< x N 1 5 6 9 { { ' ' ' ' ' ' ' { 9 9 9 9 9 9 9 9 9 9 9 9 9 9 9 9 ' ' ' ' ' ' ' ' ' ' ' ' ' ' ' ' z N   ",
"< o.6.m 5 6 6 r r { ' ' ' ' ' 9 r 9 9 9 9 9 9 9 9 9 9 9 9 9 9 9 9 ' ' ' ' ' ' ' ' ' ' ' ' ' ' ' ' +.Y.O ",
"@ Y.).B M T 6 r 6 ' ' ' ' 9 9 9 r 9 9 9 9 9 9 9 9 9 9 9 9 9 9 9 9 ' ' ' ' ' ' ' ' ' ' ' ' ' ' ' ' G.).f ",
"l Y.).n c M 6 r 9 9 ' 9 9 9 9 9 r 9 9 9 9 9 9 9 9 9 9 9 9 9 9 9 9 ' ' ' ' ' ' ' ' ' ' ' ' ' ' ' ' H.Y.b ",
"a 6.7.c 5 M r r r 9 9 9 9 9 9 9 r 9 9 9 9 9 9 9 9 9 9 9 9 9 9 9 9 ' ' ' ' ' ' ' ' ' ' ' ' ' ' ' ' _.Y.c ",
"y 6.6.c 5 M r r r 9 9 9 9 9 9 9 r 9 9 9 9 9 9 9 9 9 9 9 9 9 9 9 9 ' ' ' ' ' ' ' ' ' ' ' ' ' ' ' ' _.G.c ",
"c c.p.#.9 8 9 -.8 M M M 9 6 r r r r { r r r 9 M M 6 6 9 9 9 9 9 9  .M M M M 9 r r r r r 9 9 6 6 9 Y.{.; ",
"O q.;.T 9 8 8 -. . . .9 9 9 r r r r r r r r 9 9 9 9 9 9 9 9 9 9 9  . .M M 9 9 r r r r r 9 9 9 9 9 O.T.> ",
". M %.M M M 6  .9 ' ' 9 9 9 r r r r r r r r r 9 9 9 9 9 9 9 9 9 9  . . .M 9 r r r r r r 9 9 9 9 9 z b . ",
". O c 5 M M 9 9 8 9 9 9 9 9 r r 6 r r { { { r r r 9 r r 9 9 9 9 9  . .' ' 9 r r r r r 6 9 9 9 9 9 $ $   ",
"o c n + % M 6 9 6 r r r r r r r 9 9 r r { { r r r 9 9 9 9 9 9 9 9  . .' ' ' { { r r 9 9 9 9 9 M M H b O ",
"c +X+Xb + v M r r r r r r r r 9 9 9 9 9 { { { { { { { ' ' 9 9 9 9  .' ' ' ' { { { { r 9 9 9 9 9 M @XXX<.",
"1.vXcXJ % n v 6 r r r r r r 9 9 9 M M 9 ' { { { { { { { ' 9 9 9 9  .' ' '  .{ { { { #.M M 9 M c c nXzXW.",
"].@X#XS $ n v 6 6 r r r r 9 9 9 M M M M M ' { { { { { { ' 9 9 9 9 M M '  . . .' ' #. .M M m c c c 2X1XI.",
").<X1XP.D 3.E ; T r r r 9 9 9 9 8 M M 9 9 9 7 9 ' 9 9 9 6 6 6 9 6 M 9 3 9 9 9 7 7  .3 8 c B <.B <.3X/.I.",
"6.gXxXE.L T./ ; T T r r T #.#. . .m M M M 9 9 #.*.{ #.#.T 9 M M M M M M  .#.#.#. .#.8 M m <.T.Y.T.$X%X^.",
"}.;X<XU.G 3.n O 5 v 6 3 9 6 5 5 m l c c m 8 6 9 ' ' ' 9 9 6 6 v v 5 m M 8 3 8 8 8 m 1 c % N Y.P.2.3X>XC.",
"+X;X1X^.E.XXT.B <.<.%.%.%.M 5 M <.N N B B .. .9 6 #.#.9 M T E E E M <.%.m 5 m ....4...J b L XXE.U.=X%XF ",
"}.;X1X#X#XzXXX6.6.7.u.u.7.B c %.i.T.T.7.).i.u.%.9 #.9 6 M 5.e.e.3.7.].7.M c ..u.].].).T.2.E.zX1X1X,X;XP.",
"6.1X1X1XfXfXXXY.6.2.T.).o.% o % B Y.2.2.6.7.4.M < 3 ; @ v <.7.7.3.T.].5.c % m 4.u.6.o.Y.+.E.1X1X;X.X XW.",
"cX~.~.~. X XU.S.+.Z O.6.B % $ % > S S b N n m 5 @ @ @ @ > v B n n 1./ n % o $ N 4.o.H +.K N.Q.U.Q.!.XXlX"
};
