/* XPM */
static char *cceb1e1ae5794278a96a8fc6d92cc82c[] = {
/* columns rows colors chars-per-pixel */
"52 52 249 2 ",
"   c #000001",
".  c #050803",
"X  c #103F1B",
"o  c #3E391E",
"O  c #2B2B2C",
"+  c #39362C",
"@  c #353536",
"#  c #451D0D",
"$  c #472816",
"%  c #522B10",
"&  c #5B3419",
"*  c #713B0A",
"=  c #603519",
"-  c #6A3B1D",
";  c #713D19",
":  c #503424",
">  c #633820",
",  c #733F20",
"<  c #0C440D",
"1  c #0A4918",
"2  c #144B17",
"3  c #07591B",
"4  c #095A1B",
"5  c #17551A",
"6  c #245E1C",
"7  c #15641B",
"8  c #1B651C",
"9  c #1C6A1E",
"0  c #23631E",
"q  c #26681E",
"w  c #23721F",
"e  c #174B24",
"r  c #144C24",
"t  c #0E5A25",
"y  c #1A5626",
"u  c #1D5B2A",
"i  c #1B5834",
"p  c #255B26",
"a  c #225C2C",
"s  c #355025",
"d  c #255B33",
"f  c #2B5D32",
"g  c #0C6722",
"h  c #1D6424",
"j  c #1D6A25",
"k  c #146729",
"l  c #1D642C",
"z  c #1C6B2B",
"x  c #097527",
"c  c #0D7B28",
"v  c #1C7425",
"b  c #107B29",
"n  c #197A29",
"m  c #196635",
"M  c #1C6A33",
"N  c #1D7134",
"B  c #236424",
"V  c #2A6523",
"C  c #226A23",
"Z  c #2A6A24",
"A  c #23652A",
"S  c #2A642C",
"D  c #246B2B",
"F  c #2A6C2D",
"G  c #336C2A",
"H  c #257528",
"J  c #2B722D",
"K  c #32742E",
"L  c #377B2E",
"P  c #236632",
"I  c #2C6534",
"U  c #256B33",
"Y  c #2B6D32",
"T  c #286739",
"R  c #2A6E3A",
"E  c #326C33",
"W  c #346838",
"Q  c #247333",
"!  c #2C7333",
"~  c #2C733B",
"^  c #297838",
"/  c #2D7A3C",
"(  c #337434",
")  c #3A7434",
"_  c #337A35",
"`  c #3B7934",
"'  c #337439",
"]  c #3B723A",
"[  c #347A3B",
"{  c #3C7B3B",
"}  c #5F441D",
"|  c #604C1E",
" . c #73401E",
".. c #4F4A30",
"X. c #674C22",
"o. c #734221",
"O. c #794A2A",
"+. c #6E5530",
"@. c #55662B",
"#. c #43773B",
"$. c #76602D",
"%. c #297641",
"&. c #2D7A41",
"*. c #397545",
"=. c #337B43",
"-. c #3B7A43",
";. c #36714A",
":. c #69594A",
">. c #4E6C4D",
",. c #437849",
"<. c #477856",
"1. c #557859",
"2. c #68714E",
"3. c #52506C",
"4. c #6E6E6E",
"5. c #68786A",
"6. c #787962",
"7. c gray45",
"8. c #977F1C",
"9. c #855A34",
"0. c #8C6835",
"q. c #8E7137",
"w. c #99783D",
"e. c #A1763A",
"r. c #885F41",
"t. c #96724D",
"y. c #A27642",
"u. c #A47A41",
"i. c #A17C58",
"p. c #8D7064",
"a. c #19811E",
"s. c #1C8229",
"d. c #26842B",
"f. c #288B29",
"g. c #378C24",
"h. c #2E9029",
"j. c #3B9A27",
"k. c #319229",
"l. c #369829",
"z. c #2C8134",
"x. c #37853A",
"c. c #4E882F",
"v. c #479729",
"b. c #5A9F2E",
"n. c #41A429",
"m. c #72AF27",
"M. c #37894E",
"N. c #4A8F50",
"B. c #4E8159",
"V. c #55855B",
"C. c #5E8559",
"Z. c #6A8B70",
"A. c #6E9974",
"S. c #729A7D",
"D. c #9E891C",
"F. c #B2A31B",
"G. c #938A37",
"H. c #B1933B",
"J. c #B1B629",
"K. c #C9BE1B",
"L. c #C8B037",
"P. c #CAB934",
"I. c #C9C011",
"U. c #FEFE01",
"Y. c #FAF90C",
"T. c #EDE81E",
"R. c #F0EC1B",
"E. c #F6F315",
"W. c #D1C72C",
"Q. c #D7CA2E",
"!. c #DBC837",
"~. c #E6DE25",
"^. c #E9D735",
"/. c #EBD63A",
"(. c #F3E82C",
"). c #F4EF30",
"_. c #8B8E5E",
"`. c #B58A4B",
"'. c #8D946C",
"]. c #969665",
"[. c #A78766",
"{. c #B7956A",
"}. c #B19B77",
"|. c #B6A37F",
" X c #C59648",
".X c #D5A64F",
"XX c #CCA552",
"oX c #D6A650",
"OX c #DEAC52",
"+X c #E2B54F",
"@X c #C29C69",
"#X c #C1A463",
"$X c #C7A67B",
"%X c #E7C746",
"&X c #EDF56A",
"*X c #2F519C",
"=X c #33529C",
"-X c #474F8B",
";X c #779984",
":X c #7DAE8B",
">X c #219BC7",
",X c #0DBAFF",
"<X c #30B7F7",
"1X c #838B83",
"2X c #949592",
"3X c #9B9B9B",
"4X c #86AF8B",
"5X c #97A798",
"6X c #8DB495",
"7X c #96B89A",
"8X c #B3AC9B",
"9X c #9693A4",
"0X c #96B3A4",
"qX c #AEA9A7",
"wX c #B9BABB",
"eX c #C9AB84",
"rX c #CFB18B",
"tX c #D0B087",
"yX c #D5B48B",
"uX c #D3B897",
"iX c #DABB92",
"pX c #C9BCB3",
"aX c #9EC79B",
"sX c #99C2A4",
"dX c #DCC29D",
"fX c #E0C39A",
"gX c #D9C2A6",
"hX c #CFC2BA",
"jX c #E6CAA2",
"kX c #EBCFA6",
"lX c #E9D0AD",
"zX c #F2D7AE",
"xX c #F5DBB2",
"cX c #FDE4BB",
"vX c #FFE6BD",
"bX c #A4A9C5",
"nX c #C9C9C8",
"mX c #D5CFCA",
"MX c #D5D5D5",
"NX c #DCD5D1",
"BX c #DCD7D6",
"VX c #DCDCDC",
"CX c #F6E9D5",
"ZX c #ECE8E5",
"AX c #EDEDED",
"SX c #F1EEEA",
"DX c #F2F0EF",
"FX c #F2F2F2",
"GX c #FFFEFD",
/* pixels */
"5XZ.V.V.1.1.1.1.>.<.,.,.;.;.<.B.<.;.<.<.B.B.B.B.<.<.<.;.,.<.<.<.<.,.;.;.,.<.<.<.;.;.>.>.<.<.1.1.1.B.A.A.",
";X%.-.%.R ' I a y y t t k M %.%.M t Z.MX4.5.A.A.A.A.A.A.A.A.1.4.nXl t k M R %.M m k a u i i d W ' ' Q T ",
":X=.M.M.&.=.[ U z N k k k Q &.&.Q M z mX  u b b b b b b b b 1   wXz k k N ^ / N k k D l l m R ' { x.N.M.",
":XP M.^ Q Q Q Q Q Q Q A h A U Q 1XMX3XZ.g v l.l.l.l.l.l.l.l.H g { 3XnXC Q [ [ ! D D ! D l M R Y J J x.~ ",
"6Xy =.! C 0 Z J _ z.F B 5 p B p S wX  1 b z.n.n.n.n.n.n.n.n.f.b 4   3XV G { #.` ( ) ) D h l P B 0 q _ Q ",
"7Xf -.( V 6 V K [ x.S p p V 5XMXwX,.4 g b s.k.k.k.k.k.k.k.k.d.b g 4 S wXnX` { ` ` { { F h P I p 6 Z _ ' ",
"5Xp *.E V V V K ( J F F F F S 3X  4 b b b b b b b b b b b b b b b b g   7.) [ ) ! F K S A T W E G Z ! Y ",
"5X2 I S B V V S D A ^ ^ ^ VXMXZ.1 v f.f.f.f.f.f.f.f.f.f.f.f.f.f.f.f.v 1 1XMXMX! D j V A l P W ] ) J z A ",
"6XX a l B B B B h k [ =.[ 4.  g b k.n.n.n.n.n.n.n.n.n.n.n.n.n.n.n.n.l.b x   @ ! z h h h M m R -.{ ^ k l ",
"7Xr T M j A A j k k ~ =.=.4.  j s.v.b.m.v.m.m.m.b.b.b.b.m.m.m.b.b.b.v.s.n   @ ! D D 8 z M m R -.[ Q g m ",
"6Xr =.Q j h A z k k E -.-.4.  g.n.G.u.P.U.U.U.Y.u.u.u.u.R.U.P.u.u.u.G.n.j.  @ ' F S 8 j M M R =.[ Q g m ",
"7Xd -.! h B A j k k E { -.4.. g.v.G.u.P.U.U.U.Y.w.w.u.u.R.U.P.w.u.u.G.n.v.  @ ' S p 0 j k l R -.{ Q k l ",
"7Xf -.Y S S F B h k J ..O v c q.u.u.u.P.U.T.w.H.U.U.G.u.R.U.U.U.J.u.u.u.w.c b O e FXZ V h D W ] ] ( h P ",
"7Xp *.E E ) E S h z ! @   x c q.u.u.u.P.U.T.y.G.U.U.G.y.R.U.U.U.J.u.u.u.w.c c     FXG V B I ] #.) K y I ",
"sXi -.[ _ { ZX}.eXgXgXO.- X.X.`.oX/.E.^.+X%XE.R.H.H.R.E.%X+XG.H.Q.E.Q.u.w.X.X.- - uXgXeXpXmXY *.-.F 8 0 ",
"sXd =.[ _ { ZXe.`.yXyXO.; o.,  XOX/.U.(.OX%XU.Y.u.u.Y.U.%XOX`.u.Q.U.~.u.w. .o. .; eXyX[.NXmXY *.-.J 9 B ",
"7Xr ~ ! ( ` VX9.iXzXzXdXdXi.q.Q.(.P.P.!.(.^.P.L.u.u.Y.U.L.`.@X$X#XP.Q.~.Q.q.y.dXjXzXzX[.pXmXY *.-.! 8 0 ",
"6X1 U D ! ` VX; t.vXvXvXvX{.u.~.U.Q.u.^.U.(.u.u.u.u.Y.U.G.u.$XyX@Xu.Q.U.~.u.`.vXvXvXvX[.p.mX! *.-.! 8 0 ",
"4X1 P D ! ` DXpXpX|.|.kXkXi.0.L.W.!. X!.U.!.W.^. X XK.I.#X{.iXkXtXu.G././.Q.`.kXkXrX|.pXhXZX! -.-.J 8 B ",
"4X1 l D ( { ) S FX; O.yXyXr. .q.u. XOX%XU.Y.U.Y.OXOXO.; $XiXzXvXiXu.`.OX.Xu.u.yXyX9.; VXj D ! -.-.D 8 0 ",
":Xr l D _ { ) S nX8X8XwXwXC.F.G.q. XOX%X(.(.~.~. X Xi.i.iXxXxXvXfX{.{. X X/.!.wXwXqX8XAX! ! ! -.-.J 8 5 ",
"4Xr P U [ #.) S l M A <X<X&XU.F.o.`.OXOXOX.Xu.e.o.o.tXzXxXvXvXvXkXyX}. .8.U.).,X,XB A ' x._ ~ -.-.! 8 0 ",
"S.r P D ! ` ) F A M D >X<X&XU.F.O.G. X.XoX Xw.P.r.r.iXkXxXxXzXzXdXeX{.O.D.U.).>X>XA S [ ^ ^ ~ *.-.! 8 5 ",
"S.r P D F F F S l M D O   J.U.L.u.+.  X.u.w.; O.yXiXcXvXdXyXi.; %   X.u.H.U.U.'   FXa ' _ ^ Y I ' D C 5 ",
"S.r P A B B B u l M D @   J.U.L.u.$.O +.u.y.o.O.yXiXcXvXiXyXi.o...O +.u.H.U.Y.'   FXp [ [ ^ U u P h C 5 ",
"S.r A A B B B B A U D @   XXOXe.o.nXGXMX=X-X .r.vXvXvXvX[.O.3.=X;X5XBX .0.OXOX'   FXS { [ / Y P I h C 5 ",
"S.r l D F G E Y ~ ~ D O   XXOXe.o.nXGXMX=X-X* 9.vXvXvXvXi.* 3.=X9XGXBX .0.OXOX    FXS ( Q Q ~ R *.Y C 5 ",
"S.r P Q _ ` { { =.=.A AXAXS } $ D 8XCXhX=X9XAXSXvXvXvXvXSXAXbX=XwXCXgX[ [ } +.AXAXD p S h z ~ *.-.! h 5 ",
"S.r P Q _ ` { { =.=.D D B 4.      '.vXpX*X9XGXGXvXvXvXvXGXGXbX*XqXvXdX      @ ! h D A S 7 z ~ *.-.! j 5 ",
"S.r A U J K ( ' =.&.D F D VXMX5.  i.$XgXlX8XCXCXvXvXvXvXCXNX8XhXuX$X[.  1XMXMXY h A I Y A Q ~ *.*.Q j 5 ",
"A.u P A C 0 0 ( [ ^ ! [ -.' h 3X  $.u.tXvXvXvXvXvXvXvXvXvXvXvXvXiXu.0.  7.A A A A h V ) [ =.=.[ { J h u ",
"S.r P h B 0 V ( [ ! [ [ [ nXwXS 4 @.0.[.}.uXkXkXkXkXkXkXkXkXuX}.{.0.$.3 Y wXwXA A h 0 ) [ =.=.[ x.J h y ",
"S.r U A B 0 Z ( [ ! [ [ [ 4.  g b (  . .o.t.yXyXyXyXyXyXyXyXi.o.o.o.| c x   @ D D D V [ [ =.~ ! _ J j u ",
";Xr R A B V Z ( [ ! B.MXMX4.[ [ V.5.} } | ' ].].].].].].]._.2.| X.} 6.V.5XA 3XMXMX' G { =.&.R A F C h y ",
";Xr U j B V V ( [ / ' @   [ [ VX! wX< 4 c c c c c c c c c c c c g < 5X[ AX# s     FX) { [ &.U u B 9 C u ",
"4Xr P h C Z Z J [ AXAX: [ ! ' nXAXqXh D b b b b b b b b b b b b A ! 2XAXVX% s D ' VXAXV./ =.R h B C D a ",
"7Xu R F J K F F FX     .o. . .s   % o.@.b b b b b b b b b b b b Y o.&   D o.o.o.o.[   VX~ &.~ B D C 7 u ",
"sXy =.[ x.c.K D FX  . O.O.O.O.$   & o.@.n n n n [ -.! A n n n n ! o.&   A O.O.O.O.[   VXQ &.~ h B 9 j T ",
"0Xu =.[ _ ` G B FX  ' tXzXxXvX[ < A n.D o.o.o.#.U.U.U.U.D.o.o.o.' n.g.< A cXcXyXyX]   VX/ ~ U S V C h u ",
"7Xe R ! _ ` ) F FX    yXjXcXvXF < F n.( , , o.@.U.U.U.U.D.o., , ' n.g.< A vXvXyXyX..  VX=.~ U A B C h u ",
"7Xr A F K ` ( D h AXAX:...:.>.+ F 7 s.g.v.v.[ Y c.c.c.c.A h v.v.g.s.j S A >.:.....VXAXV.=.~ U A B 9 j u ",
"7X1 l D K ` ( D h k ' @           4 b f.n.j.c b b b b b b b l.n.k.b g             FXK [ =.&.U B B 9 A a ",
"6X1 D J _ ` ` ! U Q ,.MXMXMXMX5.  [ 1 9 f.f.l.l.l.l.l.l.l.l.h.f.v 1 5   1XMXMXMXMX! G ' =.~ U B B C D u ",
"6X1 A F K ` ` ' ~ =.D B B D A 3X      1 b d.n.n.n.n.n.n.n.n.f.b 4       7.D A h D B V ! [ ~ U B B C j u ",
"7X2 A A J ` ` ' [ =.D h h nXwX>.% $ [ ' 4 7 ' F B B S S D h C 4 [ ' o % :.wXwXh A h V ( =.&.R A B C A u ",
"7Xr D D K ` ` ' [ =.Y B B 4.  = o.> W (                         [ W & o.-   @ A F A Z ( =.=.R A B C D a ",
"4X5 H H H j z z.d.a.z h h 4.  = o.> & $ H d.  O 3X3X3X3XA   N z $ & > o.-   @ %.m m 7 n f.d.v h j 9 d.H ",
"7Xp ) Q A y A ~ z.z.Y U D 4.  = o.o.o.> W :   J 8 h j Y 5.  F s > o.o.o.-   @ ~ P P A ^ x./ D A A F x.! ",
"7X2 N.] I d I ] { x.D D A 2X4.:.- - - & ..*.4.5.a a S I 3X4.W o & - - - +.4.7.J B B f W =.' I f I Y ! ' ",
"aXS c.) F W W W F D 9 9 9 j j 3X          >.W W f f I I S S qX          7.H H w 9 9 f I Y Y I W W ' x.x.",
"aXZ c.x.{ ,.,.E C 8 H 9 v H j 3X          >.B A B S T A l U qX          7.8 9 7 7 7 I S C D ' *.{ x.x.x.",
"4XZ L K F I f p 2 2 5 2 2 5 2 < 5 B h B 5 < 1 5 1 2 r 1 1 5 5 1 5 u I I a y y y y p e 2 < 5 p f S B H _ "
};
