/* XPM */
static char *_d35196812f342b987e0bd40530506e4[] = {
/* columns rows colors chars-per-pixel */
"52 52 239 2 ",
"   c #010101",
".  c #0A0203",
"X  c #010D03",
"o  c #160704",
"O  c #041505",
"+  c #061B09",
"@  c #061D08",
"#  c #18160A",
"$  c #2D1909",
"%  c #08270B",
"&  c #0E3311",
"*  c #083B12",
"=  c #3B260E",
"-  c #0B1725",
";  c #461F12",
":  c #452812",
">  c #45271A",
",  c #6C380D",
"<  c #6C3B1A",
"1  c #713D1C",
"2  c #4A2920",
"3  c #502D20",
"4  c #6D3C20",
"5  c #074109",
"6  c #054313",
"7  c #0B4918",
"8  c #144C18",
"9  c #08571B",
"0  c #155518",
"q  c #1C5B1C",
"w  c #2C420F",
"e  c #235C1A",
"r  c #15651B",
"t  c #1B651B",
"y  c #1D6A1E",
"u  c #1B701F",
"i  c #23631E",
"p  c #24681B",
"a  c #2F6C1F",
"s  c #174B24",
"d  c #144C24",
"f  c #0D5A25",
"g  c #155125",
"h  c #1B5422",
"j  c #1B5A27",
"k  c #1D5B2A",
"l  c #1B5834",
"z  c #235D25",
"x  c #225C2B",
"c  c #285929",
"v  c #255B33",
"b  c #2B5D32",
"n  c #34543F",
"m  c #0D6725",
"M  c #146426",
"N  c #1D6425",
"B  c #1D6A24",
"V  c #14642B",
"C  c #1D652C",
"Z  c #156A2B",
"A  c #1C6B2B",
"S  c #0E7426",
"D  c #007A27",
"F  c #037A29",
"G  c #0D7A29",
"H  c #1B7524",
"J  c #117B29",
"K  c #196735",
"L  c #1B6A33",
"P  c #1D7134",
"I  c #236424",
"U  c #2A6524",
"Y  c #226A23",
"T  c #2A6A24",
"R  c #22652A",
"E  c #2A652C",
"W  c #246B2B",
"Q  c #2B6B2C",
"!  c #356C29",
"~  c #257528",
"^  c #2C732D",
"/  c #33732D",
"(  c #347C2B",
")  c #236632",
"_  c #2C6534",
"`  c #256B33",
"'  c #2B6D32",
"]  c #286739",
"[  c #2A6E3A",
"{  c #326C33",
"}  c #336A39",
"|  c #257233",
" . c #2C7333",
".. c #2C743B",
"X. c #287838",
"o. c #2D7A3C",
"O. c #337434",
"+. c #3A7534",
"@. c #337A34",
"#. c #3B7934",
"$. c #34753A",
"%. c #3A753A",
"&. c #347B3B",
"*. c #3C7B3B",
"=. c #59411F",
"-. c #6C451E",
";. c #73401F",
":. c #4D592B",
">. c #6A4A23",
",. c #734120",
"<. c #764D24",
"1. c #685723",
"2. c #7A5033",
"3. c #566C33",
"4. c #41793D",
"5. c #6E6F33",
"6. c #222E41",
"7. c #297642",
"8. c #2D7B41",
"9. c #397545",
"0. c #337B43",
"q. c #3B7A43",
"w. c #36714A",
"e. c #365272",
"r. c #6B454A",
"t. c #417749",
"y. c #4E6F53",
"u. c #477856",
"i. c #56785A",
"p. c #6B6E4C",
"a. c #777371",
"s. c #87671D",
"d. c #825630",
"f. c #936C31",
"g. c #9B723C",
"h. c #9C793E",
"j. c #A2783E",
"k. c #865E41",
"l. c #8D6748",
"z. c #937152",
"x. c #A37A41",
"c. c #A07C5C",
"v. c #927A6C",
"b. c #19811E",
"n. c #1D8329",
"m. c #268729",
"M. c #278A29",
"N. c #399A29",
"B. c #2B8135",
"V. c #37853A",
"C. c #3EA229",
"Z. c #4A8C2E",
"A. c #669831",
"S. c #6A9931",
"D. c #719433",
"F. c #41A429",
"G. c #78A42F",
"H. c #37894E",
"J. c #4F8659",
"K. c #748556",
"L. c #598B64",
"P. c #659371",
"I. c #729A7D",
"U. c #9A8D14",
"Y. c #9D8134",
"T. c #AC893B",
"R. c #B79A3C",
"E. c #95BE25",
"W. c #BCA436",
"Q. c #BCA33A",
"!. c #C3AD37",
"~. c #C1AA38",
"^. c #CBB636",
"/. c #9CC522",
"(. c #E3DE10",
"). c #EBE90A",
"_. c #FEFF00",
"`. c #F9F708",
"'. c #EDE81D",
"]. c #F1EC1B",
"[. c #F7F417",
"{. c #E3D928",
"}. c #E8CF3F",
"|. c #EAE225",
" X c #F6EC29",
".X c #F9F222",
"XX c #B58945",
"oX c #B08A51",
"OX c #A59259",
"+X c #AF8E68",
"@X c #BB9B78",
"#X c #CA9B4A",
"$X c #CD9F50",
"%X c #CFA04C",
"&X c #D4A34F",
"*X c #D6A550",
"=X c #DEAB52",
"-X c #C09F71",
";X c #C4A57E",
":X c #E7C647",
">X c #F7FB49",
",X c #284E9C",
"<X c #2E519C",
"1X c #4E5690",
"2X c #6E77A5",
"3X c #1B8699",
"4X c #779D82",
"5X c #7DAE8B",
"6X c #02B0F2",
"7X c #AB978C",
"8X c #89AD8E",
"9X c #8DB495",
"0X c #96B89A",
"qX c #ACB398",
"wX c #8E93AC",
"eX c #98B3A6",
"rX c #AFAAB1",
"tX c #CCAD85",
"yX c #CEAF87",
"uX c #D5B48B",
"iX c #DDBE95",
"pX c #C0B5AC",
"aX c #9EC79B",
"sX c #99C2A4",
"dX c #DCC19A",
"fX c #E2C49B",
"gX c #DCC8A8",
"hX c #E8CDA7",
"jX c #ECD3AB",
"kX c #E1CDB5",
"lX c #F5DCB3",
"zX c #F9DFB6",
"xX c #F9E0B7",
"cX c #FEE5BC",
"vX c #98CFCF",
"bX c #ECE3D2",
"nX c #EEECEC",
"mX c #FAF8F6",
"MX c #FFFEFD",
/* pixels */
"9XP.L.J.i.i.i.y.y.y.t.t.w.w.u.J.u.w.u.u.J.J.J.J.u.t.u.w.t.u.u.u.u.t.w.w.t.u.u.u.w.w.y.y.y.u.i.i.i.J.P.P.",
"4X7.q.7.[ } } x g j f f V L 7.7.L f f f V L L V f 9 V f f V L 7.7.C f V L [ 7.L K V c k l l v } O.O.| ] ",
"5X0.H.H.o.0.&.` A P V M Z | 8.8.| L Z P X.8.o.X.L Z Z V V L P 8.o.Z M Z P o.o.P Z V W C C K [ $.*.V.J.H.",
"5X) H.X.| | | | | | | W N W ` | |  .W W  .&.@.W N N W |  . . .&.&.W N Y | &.&. .W W  .W C L [ ' ^ ^ V...",
"9Xh 0. .Y i T ^ @.B.Q I e z I z E O.%.%.*.4.*.O.Q E Q O.*.+.O.*.+.U U U / *.4.+.O.+.O.W N C ) I i p ( | ",
"0Xb q.O.U e i / &.&.E z z U U U Q %.*.+.b _  .W Y Y ~ ^ @.O.c { *.U I I Q +.*.+.+.*.*.Q N ) _ c e T ( $.",
"0Xc 9.{ U U U / O.^ Q Q Q Q E I Q $.&._   * J J J J J J J S   & O.W I I Q O.&.O. .Q / E R ) } { ! T  .' ",
"8X8 _ E I U U E W W o.o.o.| A N | ..) k 7 q M.M.M.M.M.M.M.m.7 7 ) j N A | o.&. .W B U R C ) } %.+.^ A R ",
"9X* x C I I I I N M &.0.&.| N N W `   * J m.F.F.F.F.F.F.F.N.G S   % N A | &.&. .A N B N A K [ q.*.X.M C ",
"0Xd ] ) B R R B Z Z ..0.0.' C j j x 7 9 J n.N.N.N.N.N.N.N.N.G S 7 7 h h ' $.&. .` W t A Z K [ q.&.| m K ",
"9Xg 0.` B N W A Z Z { q.q.O.R h   6 J J J J J J J J J J J J J J J S   @ ' %.*.$.Q E t A Z K [ 0.&.| m K ",
"0Xv q. .N I R B Z Z { *.q.' h 8 6 q M.M.M.M.M.M.M.M.M.M.M.M.M.M.M.m.6 7 b } q.$.E z i B M C [ q.*.| M C ",
"0Xb q.' E E Q I N Z ^ &.*.z   6 J M.F.F.F.F.F.F.F.F.F.F.F.F.F.F.F.C.G S   @ &. .W R T U N ) } 4.%.O.N ) ",
"0Xc 9.{ { +.{ E N A  .V.V.R   8 M.Z.S.G./././.E.S.S.S.G./.E.S.S.S.A.M.m.  @ | | |  .! T I ) %.4.+./ j _ ",
"sXl q.&.@.*.%.' C C O.&.&._   e F.S.x.~._._._.].x.x.x.R._.[.x.x.x.Y.C.N.  O N W  .q.$.Q B B ' 9.q.W r I ",
"sXv 0.&.@.*.%.Q C C $.$._ x 6 a S.D.x.W._.`.|.{.!.Q.x.R._.[.!.W.x.h.S.A.6 6 h z O.q.%.Q B B ' 9.q.^ y I ",
"0Xg .. .O.#.O.Q C C O.x   6 J 3.x.x.x.~._.'.x.Q._.].x.R._._._.[.x.x.x.h.F S   O  .$.%.W t B ' 9.q. .t i ",
"9X7 ` W  .#.O.3.3.p.K.p.= w ! 5.XXXX~.^. X|.~.^.'.{.~.^. X X'.|.~.Q.x.h.! ! = > K.K.5.3.r B  .9.9. .r i ",
"8X7 ) W  .#.O.5.x.+XuX@X;.;.,.g.=X:X_. X=X:X_.].x.R._.[.=X*Xx.R._.[.x.j.;.,.,.2.uXuXx.x.t B  .q.q.^ t I ",
"8X7 C W O.*.O.5.g.+XfXyX+Xc.d.T.:X}.'.|.:X:X'.{.x.Q._.[.&X$XoXoX'.|.Q.W.d.d.+X+XfXiXg.g.Y W  .q.q.W t i ",
"5Xd C W @.*.O.:.;.@XcXcXcXhXx.!._.|.x.~._.'.x.x.x.Q._.].x.oXuXyXx.T._.`.x.oXcXcXcXcX;.,.@. . .q.q.^ r q ",
"8Xd ) ` &.4.O.:.>.+XhXjXlXdXg.W.'.{.XX^._.].Q.Q.XXR.).{.oX+XfXiXj.T..X Xx.oXlXlXhXhX>.1.V.&...q.q. .t i ",
"I.d ) W  .#.O.Q R :.1 c.uX@X;.d.x.XX=X:X_._._..X=X$X1 k.uXiXcXlXj.XX=X*Xx.oXuXyX1 -.E &.@.X...9.q. .r 0 ",
"I.d ) W Q Q Q R C :.>.v.pXqXU.Y.g.XX=X:X.X.X].{.#X#Xl.c.dXfXcXzXoXoX#X#XQ.#XpXrX-.>.x $.@.X.' ] } W Y q ",
"I.d ) W I I I j C L W 3X6XvX_.(.1 f.=X=X=X&Xx.g.1 l.uXiXcXcXcXxXuXyX1 s._.>X6X6XN R z &.&.X.` x ) N Y q ",
"I.d R W I I I I R ` W 3X6XvX_.(.<.f.#X#X&X#Xg.g.l.c.iXfXzXlXjXhX;X@X<.f._.>X6X6XN I E *.&.o.' ) ] N Y q ",
"I.d C W Q / { ' ....W h   U._.|.x.f.  3 x.g.,.l.uXiXcXzXuXyX< <   = x.T._.`.  + N R E O.| | ..[ 9.' Y q ",
"I.d ) | @.#.%.*.0.0.R h   U..X{.g.z.a.a.z.z.;.z.iXfXcXlX;X@Xr.r.a.a.g.T..X].  + I W z E r A ..9.q. .B q ",
"I.g ) | @.#.%.*.0.0.W h   d.=X#X;.7XMXnX,X1X;.c.cXcXcXjX< r.<X2XMXmX, d.=X&X  + N W R E r A ..9.9. .B q ",
"I.g R ` ^ / O.$.0.0.W z % 5.$XXX< 7XMXnX<X1Xv.7XcXcXcXlXv.v.<X2XMXnX, <.%X#X& & N R ' ' W | ..9.9.| B q ",
"I.k ) R Y i i O.&.o. .&.q.E       OXcXkX<XwXMXmXcXcXcXcXMXnX,X2XcXlX      O R R R N U O.o.0.0.&.*.^ N k ",
"I.d ) N I i U O.&. .&.&.&.R % +   v.lXgX2XrXMXmXcXcXcXcXMXnX2XwXlXjX  X % % N R R N i O.o.0.0.&.*.^ N h ",
"I.d ` R I i T O.&. .&.&.&. .W j   =.j.-XcXcXcXcXcXcXcXcXcXcXcXlXj.g.  % ' R N W W W T &.&.0... .@.^ B k ",
"4Xd [ W I U T O.&. .O.&.&.$.O.E % =.g.@XlXlXxXxXxXxXxXxXxXxXlXjXg.g.% & W N R Q O.$.! *.0.8.[ R Q Y N h ",
"4Xd ` N I U U O.&.o.O.&.&.E   6 G ! ;.1 1 l.uXuXuXuXuXuXuXyX< 1 ;.>.G S   O I ' &.q.+.*.&.8.` j I y W j ",
"8Xd ) N Y T T ^ &.o.O.&.O.x - n L.J.-.-.>.l.yXyXyXyXyXtXyX;X-.>.-.>.L.L.o # j W O.&.+.*.o.0.[ N I Y W x ",
"0Xk [ W ^ / Q Q | `  ._   6.e.wXMXbX5 9 G G D D D D D D D D G S 5 i.MXmX; >   O  .&.+.&...8...I W Y r j ",
"sXk 0.&.V.Z./ E N M Q _ # 6.e.wXmXbXw e J J J J J J J J J J J S w i.mXnX: > # $ O.$.+.O.| 8...N I y B ) ",
"eXk 0.&.@.#./ I N g   : ,.,.;.,   $ ,.1.G J J J J J J J J J J ^ ,.1   o ,.,.,.1   O / O.o...` E I Y N k ",
"0Xg [  .@.*.O.Q B g   > 2.d.k.2.X = <.1.~ ~ ~ ( Z.Z.Z.Z.~ ~ ~ / <.-.X $ k.d.2.2.  O +.&.0...` R I Y N k ",
"0Xd R W / #.O.W N 8   z.uXfXcXgX5 p F.Z.1 ,.;.U._._._.).4 ,.,.1.F.N.5 3.cXcXuXuX  + +.%.0...` R I y B k ",
"0X7 C W / #./ W N g + p.yXdXzXdX* p C.Z.>.>.,.U.`.`.`.).,.,.<.1.C.N.* 3.zXlXyXyX@ & / &.0.8.` I I y W x ",
"9X7 W ^ @.#.#. .` | | z           6 G m.F.N.G G F F F F G n.F.C.G S           O $. .! O.0...` I I p W k ",
"9X7 R W / #.#.O...0.W q O O O X   6 G m.F.N.J J J J J J J n.F.N.G S     O O O @ W I T  .&...` I I Y B k ",
"0X8 R W ^ #.+.O.&.0.W N N W W q       * J m.F.F.F.F.F.F.F.N.G S       % ' W R N R N T O.0.8.[ R I Y W k ",
"0Xd W W / *.#.$.&.0.' I I Q W h o o . * J m.F.F.F.F.F.F.F.N.G S . . o # W R R R Q R T O.0.0.[ R U Y W x ",
"8Xq ~ ~ ~ M A B.m.b.A N N q   ; ,.4 2 >                       o 2 3 ,.1   + 7.7.K K r H M.m.H N B u m.~ ",
"0Xz O.| R j R ..B.B.' ` W h   ; ,.4 2 > . .   X X X X X     . o 2 3 ,.1   @ 0...) ) R X.V.o.W E R W V. .",
"sX8 J.%.E v _ } *.V.W W R 0   ; ,.,.,.4 2 >   & x c E b   o 2 3 ,.,.,.1   @ O.^ I I b } 0.$._ b _ '  .$.",
"aXU Z.O.Q } } } Q W y y y q X = ;.;.,.4 2 = X & b b _ c X # 2 3 ,.,.,.1 X % ~ u y y b _ ' ' _ } } O.V.V.",
"aXT Z.V.*.t.t.{ Y t ~ y H ~ B 0 . . . .   % I R I E ] ) k R     . . . % Y r y r r r _ E W W O.9.*.V.V.V.",
"8XT ( / Q _ b z 8 8 0 8 8 0 8 *           % 8 8 8 8 d 7 7 7           @ x h h h h z s 8 7 0 z b E I ~ @."
};
