/* XPM */
static char *_8c1e40e3a2c4debbd5d4c071ff26ab9[] = {
/* columns rows colors chars-per-pixel */
"52 52 201 2 ",
"   c #010302",
".  c #090302",
"X  c #010B03",
"o  c #0A0C04",
"O  c #120B04",
"+  c #031203",
"@  c #051904",
"#  c #1C1406",
"$  c #1C1906",
"%  c #1B150E",
"&  c #1A1A0F",
"*  c #1B1A10",
"=  c #221707",
"-  c #231E17",
";  c #103F1B",
":  c #222302",
">  c #282017",
",  c #001522",
"<  c #232222",
"1  c #322E27",
"2  c #49281F",
"3  c #4A2A20",
"4  c #493120",
"5  c #523731",
"6  c #0D430E",
"7  c #0A4A0E",
"8  c #14430E",
"9  c #11480F",
"0  c #0F4D12",
"q  c #0C441B",
"w  c #0C4A1B",
"e  c #134E14",
"r  c #154719",
"t  c #07561F",
"y  c #145115",
"u  c #12511D",
"i  c #195718",
"p  c #1C5B1D",
"a  c #214616",
"s  c #26491D",
"d  c #225D1E",
"f  c #285F1C",
"g  c #14661A",
"h  c #1B661C",
"j  c #1D6A1E",
"k  c #1B701F",
"l  c #23631E",
"z  c #26671E",
"x  c #23721F",
"c  c #174B24",
"v  c #144C24",
"b  c #0C5423",
"n  c #0D5C25",
"m  c #165127",
"M  c #1B5523",
"N  c #1C5D23",
"B  c #1A572C",
"V  c #1D5B2A",
"C  c #1B5834",
"Z  c #265727",
"A  c #245D23",
"S  c #215C2C",
"D  c #255B33",
"F  c #2B5C32",
"G  c #0D6725",
"H  c #146426",
"J  c #1D6325",
"K  c #1D6A24",
"L  c #14642B",
"P  c #1D652C",
"I  c #156A2B",
"U  c #1C6B2C",
"Y  c #1C7726",
"T  c #117A29",
"R  c #1A6533",
"E  c #196736",
"W  c #1C6A32",
"Q  c #1D7134",
"!  c #226424",
"~  c #2A6524",
"^  c #226A23",
"/  c #2B6A23",
"(  c #22652A",
")  c #2B652A",
"_  c #256B2C",
"`  c #2A6B2D",
"'  c #306726",
"]  c #326D2B",
"[  c #227425",
"{  c #2A7423",
"}  c #23722C",
"|  c #2B722D",
" . c #267C29",
".. c #2B7D2A",
"X. c #33742E",
"o. c #377B2E",
"O. c #236632",
"+. c #2B6534",
"@. c #256B33",
"#. c #2A6D32",
"$. c #286739",
"%. c #2A6E3A",
"&. c #326D33",
"*. c #346738",
"=. c #336D3B",
"-. c #247233",
";. c #2C7333",
":. c #2B7C34",
">. c #25733C",
",. c #2C743C",
"<. c #257B38",
"1. c #2D7A3C",
"2. c #337434",
"3. c #3A7534",
"4. c #347A35",
"5. c #3A7934",
"6. c #337539",
"7. c #3B7639",
"8. c #347A3C",
"9. c #3B7B3C",
"0. c #71401F",
"q. c #76491F",
"w. c #734221",
"e. c #774A20",
"r. c #784923",
"t. c #774829",
"y. c #41793D",
"u. c #286A45",
"i. c #3C6E4A",
"p. c #2A7642",
"a. c #297544",
"s. c #2D7B41",
"d. c #357342",
"f. c #3B7642",
"g. c #337B43",
"h. c #3B7A43",
"j. c #3F714D",
"k. c #347A48",
"l. c #3C7B49",
"z. c #387F51",
"x. c #4A6B4E",
"c. c #417749",
"v. c #547B4E",
"b. c #466D54",
"n. c #437551",
"m. c #477956",
"M. c #497B57",
"N. c #497859",
"B. c #56785A",
"V. c #A57D41",
"C. c #A47D4B",
"Z. c #19811E",
"A. c #26862B",
"S. c #2B8135",
"D. c #368738",
"F. c #3A833D",
"G. c #41823B",
"H. c #49943F",
"J. c #41A329",
"K. c #4BA529",
"L. c #368548",
"P. c #3F925A",
"I. c #4A8F50",
"U. c #4F815C",
"Y. c #50825D",
"T. c #568565",
"R. c #61916C",
"E. c #6A9676",
"W. c #71957B",
"Q. c #729A7D",
"!. c #FDFD03",
"~. c #FEFE0E",
"^. c #FFFE17",
"/. c #A78041",
"(. c #A88241",
"). c #A88049",
"_. c #DDAC51",
"`. c #3B579D",
"'. c #42599D",
"]. c #779D82",
"[. c #7EA789",
"{. c #7DB28D",
"}. c #09B8FC",
"|. c #26BAFC",
" X c #82AA8D",
".X c #8BB685",
"XX c #86AF91",
"oX c #93A996",
"OX c #8DB495",
"+X c #91B699",
"@X c #9AB799",
"#X c #94BA9D",
"$X c #A2BC9F",
"%X c #98BCA2",
"&X c #D4B38A",
"*X c #97C98A",
"=X c #A3C89C",
"-X c #99C2A4",
";X c #A0C4AA",
":X c #FEE5BC",
">X c #FDFDFD",
/* pixels */
"oXR.T.T.B.B.B.B.b.b.n.n.i.j.M.Y.M.j.m.M.U.Y.U.U.M.n.m.j.n.m.M.M.M.n.i.i.n.m.M.n.j.i.x.x.b.N.B.B.v.U.R.E.",
"].u.z.p.%.=.+.S m B n n L W p.p.W n b n L R R L n t L b n L Q a.a.R n L W >.a.Q R L S V B C D *.2.2.-.$.",
"{.z.P.L.1.8.8.@.U Q I H I -.s.s.>.W U Q <.s.1.>.W I I H I U Q s.1.U H I Q <.1.Q I I _ P R E %.6.9.D.I.L.",
"{.O.L.<.} } } } -.<.-.( J ( } -.-.;._ _ -.8.8._ J J _ | ;.;.;.8.8.( J ^ -.8.8.;._ _ ;._ R W %.#.| ..D.,.",
"OXM g.;.^ l / | :.S.` ! d A ! A ) 2.7.7.9.y.9.2.` ) ` 2.9.7.2.9.7.~ ~ ~ ] 9.y.7.2.7.2._ J P O.! l x :.-.",
"@XF h.2.~ d ~ X.8.8.) A A ~ ~ ~ ` 7.9.7.7.7.3.` ! ! ` 2.9.7.2.9.9.) ! ! ` 7.9.7.7.9.9.` J O.+.A f / 4.6.",
"@XZ f.&.~ ~ ' ] 2.| ` ` ` ` _ ! ` 6.6.8.3.7.2.` _ _ ` 7.4.4.4.3.4._ ! ! ` 2.6.3.;.` ] ) ( O.*.&.' / 2.*.",
"oXr +.) ! ~ ~ ) _ ( 1.1.1.;.U P -.8.1.8.V.V.w.w.T T 6 9 J.J.J.J.J.J.T T -.:.8.;._ K ~ ( P O.=.7.3.| U ( ",
"OX; S P ! ! ! ! J H 8.8.8.-.P H ` 8.8.9.V.V.e.e.T T 6 9 J.J.J.J.J.J.T T -.8.8.;.U J K J P E %.l.9.:.H P ",
"+Xv $.W P ( ( P I I ,.g.g.#.P ! V.V._._.!.!.!.!.K.J.9 9 J.J.J.J.J.J.J.J.T T T T @._ h U I E >.l.8.-.G E ",
"OXv k.@.P J ( U I I &.h.h.2.) ) V.V._._.!.!.!.!.K.K.9 9 J.J.J.J.J.J.J.J.T T T T ` _ h K I R >.g.8.} G E ",
"+XD l.;.J ! ( P I I &.9.h.&.V.V.!.!.V.V././._._._._.K.J.9 9 J.J.J.J.J.J.J.J.T T 6 6 l K H R %.f.9.-.H R ",
"@XF l.#._ ) ` ! J I | 8.9.2.V.(.!.!.V.V.V.V._._._._.K.J.6 6 J.J.J.J.J.J.J.J.T T 6 6 / ~ J O.=.y.7.2.J O.",
"@XZ f.&.&.3.&._ J U ;.F.V.V.!.!.(.V._._.V.V.!.!./.V.J.J.6 6 J.J.J.J.J.J.T T T T T T 6 6 ! O.7.y.3.X.N +.",
"-XV l.8.4.9.7.#.P P 2.7.V.V.!.!./.V._._.V./.!.!.V.V.K.K.9 9 J.J.J.J.J.J.T T T T T T 6 6 K K #.f.f._ g ! ",
"-XD g.8.4.9.7.` P P 6.8.w.e.!.!._._.e.t.&X&X~.!.V.V.!.!.K.J.9 6 6 6 6 6 T T T T T T 6 6 K K #.d.f.| j ! ",
"#Xm ,.;.2.5.3.` P P ;.;.w.e.!.!._._.t.t.&X&X~.!.V.V.!.!.K.J.6 6 6 6 6 6 T T T T T T 6 6 h K #.d.f.;.h l ",
"OXq @._ ;.5.3.` P W ( ! ! ] V.V.r.t.&X&X&X&X/.V.V.V.!.!...T 6 6 T T T T T T T T T T T T 6 6 #.d.f.;.g l ",
"XXq O._ ;.5.2._ P W J N J #.V.V.w.w.&X&X&X&XV.V.V.(.!.!...Y 6 6 T T T T T T T T T T T T 6 6 ;.h.f.| h ! ",
" Xw P _ 2.9.3._ P W ( J ( ;.9.9.o % &X&X:X:X&X&X~.!.(.V.V.V.Y T 6 6 T T 6 6 6 6 T T T T 6 6 ;.l.h._ h l ",
"[.v P _ 4.9.3._ P W _ ! ( ;.8.8.X % &X&X:X:X&X&X~.!.V.V.V.V.Y T 6 6 T T 6 6 6 6 T T T T 6 6 ;.h.l.| g p ",
" Xv ( @.6.y.3._ P W ( J ! #.6.8.X . w.w.- 1 :X:X^.!.V.V.r.w.8 6 T T 6 6 6 6     6 6 T T X X ,.h.l.;.h l ",
"Q.v O._ ;.5.3.` ( W _ ( J _ 8.8.& % w.w.< 1 :X:X^.!.V.V.w.w.a a :.:.s s 6 6     6 6 T T X X ,.d.l.;.g i ",
"Q.v O.( ` ` ` _ P W _ ( J ` + * &X&X`.`.>X>X:X:X/.V._._.r.w.&X&X:X:X:X:Xs 6     6 6 6 6   X #.$.=._ ^ p ",
"Q.v O.( ! ! ! N P W _ ( ! #.X % &X&X`.`.>X>X:X:XV.V._._.r.w.&X&X:X:X:X:Xs 6 X X 6 6 6 6   X @.S O.J ^ p ",
"Q.v ( ( ! ! ! ! ( @._ ( ( ` X % &X&X`.`.>X>X:X:Xt.e.!.!.: - :X:X:X:X).V.O X 8.;.X X T T X X #.O.$.J ^ p ",
"Q.v P _ ` ] &.#.,.,._ ( J ( X & &X&X'.'.>X>X:X:Xt.e.!.!.: - :X:X:X:XV.V.O X 8.6.  X T T X X %.%.d.#.^ p ",
"Q.m O.-.4.5.9.9.g.g.( ( J J ( ! & > &X&X:X:X:X:Xt.e.!.!.: , |.|.C.V.# O   X 8.6.    6 6     %.d.l.;.K p ",
"Q.m ( -.4.5.7.9.g.g._ _ ! ! ( J X * &X&X:X:X:X:Xt.e.!.!.: , }.}.C.V.= # : : 6.;.X X 6 6 X X ,.d.l.;.K p ",
"Q.m ( @.| X.2.8.g.s._ ` _ _ _ ( _ 8.& > &X&X&X&Xw.e.!.!.:   , , O = _._.!.!.7.#.N ( X X K -.,.d.d.-.K p ",
"W.B O.( ^ l l 2.8.1.;.8.h.2.J p _ 9.+ & &X&X&X&Xw.q.!.!.:   X X   # _._.!.!.' ( ( J X + 1.g.g.6.9.| J V ",
"W.v O.J ! l ~ 2.8.;.8.8.6.-.J J _ 8.8.2.& % a a . = _._.# X T T 6 6 # $ 2.' J ( ( J l 3.1.g.g.6.9.| J M ",
"Q.v @.( ! l / 2.8.;.6.6.8.;._ _ ` ;.2.;.+ X 6 6 X $ _._.= o T T 6 6   X #.( J _ _ _ / 6.8.g.,.;.4.| K V ",
"].v %.( ! ~ / 2.8.;.2.6.8.6.6.8.;.( X + T T T T T T $ = 0.0.o + T T X X #.( ( ` 2.6.] 9.g.s.%.( ` ^ J M ",
"].v @.J ! ~ ~ 2.8.1.2.6.8.6.9.L.;.J : : T T T T T T + o w.w.. X T T X X #.! J #.6.h.3.9.8.s.@.N ! j ^ V ",
" Xv O.J ^ / / | 8.1.2.8.6.;.8.9.+ : !.!...T T T + + T T T T X X T T X X #.J J _ 2.8.3.9.1.g.%.J ! ^ _ S ",
"#XB %.` | X.` ` -._ ;.8.8.;.;.9.X : !.!...T T T X X <.<.<.<.X X T T X X _ J ! ` ;.6.3.6.,.s.,.! _ ^ g V ",
";XB g.6.F.G.X._ J H -.9.L.8.6.h.X X  ...w.w.w.w.. < >X>X>X>X<   3 3 3 2 X X ( #.6.8.3.3.-.s.,.J ! j K O.",
"%XB 6.8.4.5.] ! J P 2.6.6.8.6.6.X X T T w.w.w.w.. < >X>X>X>X<   3 3 3 3     ( _ 8.8.X.3.1.,.@._ ! ^ J V ",
"%Xm #.;.4.5.2.` P U 2.8.8.2.#.` X + J.J.J.J.J.J.+   5 5 5 5     3 3 T T X   ( _ 6.6.3.6.g.,.@.( ! ^ J V ",
"+Xv ( _ X.5.2._ J H 2.8.9.;.! J X @ J.J.J.J.J.J.+   3 3 3 3     3 4 T T + X ( _ 8.8.3.7.g.,.@.( ! j K V ",
"+Xq P _ X.5.2._ J L 2.6.6.-.J J ` 8.@ @ J.J.T T X . w.w.w.w.. + J.J.@ + J ( _ #.9.8.X.6.g.s.@.! ! j ( S ",
"OXq _ | 4.5.5.#.@.-.-.-.-.` ! J _ 8.+ @ J.J.T T X . t.t.w.w.. + J.J.@ X ( ( ( _ 6.;.] 2.g.,.@.! ! z _ V ",
"OXq ( _ X.5.5.2.6.g._ ! ! _ ( J _ 6.6.2.@ + X X   - :X:X&X&X%   + @ 6.8.` _ ( J _ ! / ;.8.1.@.! ! ^ K V ",
"+Xr ( _ | 5.7.2.8.g._ J J _ _ ! _ 8.6.2.o .       - :X:X&X&X%   X + 8.9.#._ ! J ( J / 2.g.s.%.( ! ^ ( V ",
"#Xv _ _ X.5.5.8.8.g.#.! ! ` ` ( ` 8.+ o 0.0.3 3 3 3 - - % %   X 8.6.2.6._ ( ( ( #.( / 2.g.g.%.( ! ^ _ S ",
".Xp [  .[ K U S.A.Z.U P J K J h K [   . w.w.3 3 3 3         X + H -.1.s.p.a.a.u.E E g Y A.A.K J K k A.[ ",
"@XA 4.-.( N ( ,.S.S.#.@.O.( J J J J   . w.w.w.0.3 3         _ ! J 2.8.9.8.d.g.,.O.O.( :.D.:._ ) ( _ F.;.",
"$Xr c.7.+.D +.=.9.F._ _ ( P ! _ O.) X o 0.w.w.w.3 2 X     X ) d d 7.X.5.X.X.4.| ! ! F =.g.6.+.F +.#.;.6.",
"=X) G.2.+.*.*.*.` _ j j j K ^ ( ` 2.6.=.o . . .   X +.+.F ) ` d l 5.5.4...{ { x j j F +.#.#.+.*.=.2.F.F.",
"*X{ H.D.9.c.c.&.^ h [ j K [ K g K 4.4.4.            $.( V @.#.J ( 8.:.| ^ g j g g g +.) ^ _ 2.h.h.D.D.D.",
".X/ o.X.` *.F Z e y y e e y e 7 y ! ! ! y 7 0 y 0 y b w w u u w u V +.O.S u M M M Z c r 9 y A F ) ! { 4."
};
