/* XPM */
static char *_abe16f8bb04404aa474a6d818ba9300[] = {
/* columns rows colors chars-per-pixel */
"52 52 200 2 ",
"   c #010301",
".  c #090402",
"X  c #020B03",
"o  c #0A0C03",
"O  c #050C0C",
"+  c #120A04",
"@  c #041204",
"#  c #0C1303",
"$  c #041903",
"%  c #131106",
"&  c #1D1B07",
"*  c #1B150E",
"=  c #221D17",
"-  c #103F1B",
";  c #232402",
":  c #282504",
">  c #222017",
",  c #222118",
"<  c #252322",
"1  c #49281F",
"2  c #4A2920",
"3  c #523730",
"4  c #0E440E",
"5  c #0A4A0E",
"6  c #12430E",
"7  c #1A430F",
"8  c #11480F",
"9  c #0F4D12",
"0  c #0C441B",
"q  c #0C4A1B",
"w  c #134E14",
"e  c #16471B",
"r  c #07561F",
"t  c #145115",
"y  c #12511D",
"u  c #195718",
"i  c #1C5B1D",
"p  c #204516",
"a  c #26491D",
"s  c #225D1E",
"d  c #285F1C",
"f  c #14671A",
"g  c #16631C",
"h  c #1B651C",
"j  c #1D6A1E",
"k  c #23631E",
"l  c #23721F",
"z  c #0D4727",
"x  c #174825",
"c  c #144C24",
"v  c #0C5423",
"b  c #0D5C25",
"n  c #165127",
"m  c #1B5523",
"M  c #1C5D23",
"N  c #1E552D",
"B  c #125B2B",
"V  c #1D5B2A",
"C  c #1B5834",
"Z  c #284A26",
"A  c #245D24",
"S  c #275928",
"D  c #215C2D",
"F  c #255B33",
"G  c #2B5C32",
"H  c #0D6725",
"J  c #146426",
"K  c #1D6324",
"L  c #106925",
"P  c #1D6A24",
"I  c #14642B",
"U  c #1D652C",
"Y  c #156A2B",
"T  c #1C6B2B",
"R  c #1C7625",
"E  c #117A29",
"W  c #1A6533",
"Q  c #196736",
"!  c #1C6A32",
"~  c #1D7233",
"^  c #236424",
"/  c #2A6424",
"(  c #226A23",
")  c #2B6A24",
"_  c #23652A",
"`  c #2A652B",
"'  c #246B2B",
"]  c #2B6B2C",
"[  c #346926",
"{  c #326C2C",
"}  c #227425",
"|  c #2A7423",
" . c #23722C",
".. c #2B722D",
"X. c #287A2B",
"o. c #33742E",
"O. c #377B2E",
"+. c #236632",
"@. c #2C6534",
"#. c #256B33",
"$. c #2B6D32",
"%. c #286739",
"&. c #2A6E3A",
"*. c #316534",
"=. c #326D33",
"-. c #36693B",
";. c #336C3B",
":. c #247233",
">. c #2C7333",
",. c #2C7B35",
"<. c #25733C",
"1. c #2C733B",
"2. c #257B38",
"3. c #2D7A3C",
"4. c #337434",
"5. c #3A7434",
"6. c #347A34",
"7. c #3A7934",
"8. c #34753A",
"9. c #3B7539",
"0. c #347B3C",
"q. c #3B7B3B",
"w. c #71401F",
"e. c #724321",
"r. c #774925",
"t. c #784B20",
"y. c #764929",
"u. c #724631",
"i. c #42733D",
"p. c #417C3B",
"a. c #286A45",
"s. c #3C6E4A",
"d. c #2A7642",
"f. c #297544",
"g. c #2D7B41",
"h. c #357342",
"j. c #3C7543",
"k. c #337C43",
"l. c #3B7A43",
"z. c #3F714D",
"x. c #347A48",
"c. c #3C7B49",
"v. c #387F51",
"b. c #375574",
"n. c #4A6B4E",
"m. c #417749",
"M. c #547B4E",
"N. c #466D54",
"B. c #437551",
"V. c #477956",
"C. c #497B57",
"Z. c #497859",
"A. c #56785A",
"S. c #A47C41",
"D. c #19811E",
"F. c #26862B",
"G. c #2B8135",
"H. c #378837",
"J. c #34823B",
"K. c #3B833D",
"L. c #41823B",
"P. c #49943F",
"I. c #41A329",
"U. c #4BA629",
"Y. c #34864A",
"T. c #3F925A",
"R. c #4A8F50",
"E. c #4F815C",
"W. c #50825D",
"Q. c #568565",
"!. c #61916C",
"~. c #6A9676",
"^. c #71957B",
"/. c #729A7D",
"(. c #FDFD03",
"). c #FCFC22",
"_. c #A78041",
"`. c #DCAC51",
"'. c #779D82",
"]. c #7EA789",
"[. c #7DB28D",
"{. c #05B8FB",
"}. c #24BAFB",
"|. c #82AA8D",
" X c #8BB685",
".X c #86AF91",
"XX c #93A996",
"oX c #8DB495",
"OX c #91B699",
"+X c #9AB799",
"@X c #94BA9D",
"#X c #A2BC9F",
"$X c #98BCA2",
"%X c #D3B38A",
"&X c #97C98A",
"*X c #A3C89C",
"=X c #99C2A4",
"-X c #A0C4AA",
";X c #FDE4BB",
":X c #FBFCFB",
/* pixels */
"XX!.Q.Q.A.A.A.A.N.N.B.B.s.z.C.W.C.z.V.C.W.W.E.E.C.B.V.z.B.V.C.C.C.B.s.s.B.V.C.B.z.s.n.n.N.Z.A.A.M.E.!.~.",
"'.a.v.d.&.;.@.D n B b b I ! d.d.! b v b I W W I b r I v b I ! f.f.W B I ! <.<.! W I D N C C F -.4.4.:.%.",
"[.v.T.Y.3.0.0.#.T ~ I J Y :.g.g.<.! Y ~ 2.g.3.<.! Y Y J I Y ~ g.3.Y J Y ~ 2.3.~ Y I ' U Q Q &.8.q.J.R.Y.",
"[.+.Y.2. . . . .:.2.:.' K ' ' :.:.>.' ' :.0.0.' K K ' ..>.>.>.0.0.' K ( :.0.0.>.' ' >.' W ! &.$...X.H.1.",
"oXm k.>.( k ) ..,.G.] ^ s A ^ A ` 4.9.9.q.p.q.4.] ` ] 4.q.9.4.q.9./ / / { q.p.9.4.9.5.' K U +.^ k l ,.:.",
"+XG l.4./ s / o.0.0.` A A / / ^ ] 9.q.9.9.9.5.] / / [ 5.p.9.5.p.9./ ^ ^ ] 9.q.9.9.q.q.] K +.@.A d ) 6.8.",
"+XS j.=./ / [ { 4...] ] ] ] ` ^ ] 0.0.8.4.8.4.] e.e.S.S.S.S.S.S.e.w.^ ^ ] 4.0.4.>.] { ` _ +.*.=.[ ) 4.*.",
"XXe @.` ^ / / ` ' ' 3.3.3.>.T U :.0.3.3.0.k.3.:.r.r._._._.S.S.S.r.e.) ] >.0.0.>.' P / _ U +.;.9.5...T _ ",
"oX- D U ^ ^ ^ ^ K J 0.k.0.:.U J ' 3.3.3.0.k.@ & `.`.(.(.(.(.S.S.S.S.(.(.S.S.0.>.T K P K T Q &.c.q.,.J U ",
"OXc %.! P _ _ P Y Y 1.k.k.$.U K #.1.1.1.0.0.$ & `.`.(.(.(.(.S.S.S.S.(.(.S.S.q.4.' ' g T Y Q <.c.0.:.H Q ",
"oXc x.#.P K ' T Y Y =.l.l.4._ _ ` $.` $.@ $ I.I.U.U.U.U.U.U.U.U.U.U.(.(.S.S.S.S.{ ` g P Y W <.k.0. .H Q ",
"OXF c.>.K ^ _ P Y Y =.q.l.=.` _ _ ^ A ` $ $ I.I.I.I.I.I.I.I.I.I.I.U.(.(._.S.S.S.` A k P J W &.l.q.:.L W ",
"+XG c.$.` ` ] ^ K Y ..0.q...( ' ( K X $ I.I.8 4 4 4 4 4 4 4 4 4 4 8 U.U.`.`.(.(.t.e.[ / K +.;.i.9.4.K +.",
"+XS j.=.=.5.=.` K T >.J.J.>.' >.:.P @ $ I.I.8 4 4 4 4 4 4 4 4 4 4 8 I.U.`.`.(.(.t.e.[ ) ^ +.9.i.5.o.M @.",
"=XN c.0.6.q.9.$.U U 4.0.0.0.l.q.X X E E 4 8 I.I.I.I.I.I.I.I.I.I.I.I.8 8 X.X.; : S.S.9.] P P $.l.l.' g ^ ",
"=XF k.0.6.q.9.] U U 8.0.0.0.0.0.X X E E 4 8 I.I.I.I.I.I.I.I.I.I.I.I.8 4 E E X + S.S.9.] P P $.h.l...j ^ ",
"@Xn 1.>.4.7.4.] U U >.>.$.>.0.0.X   4 4 I.I.I.I.I.I.I.I.I.I.I.I.I.I.I.I.4 4   X 4.8.9.' g P $.h.l.>.h k ",
"oX0 #.' >.7.4.] U ! _ ^ ` ] q.q.X   4 4 I.I.I.I.I.I.I.I.I.I.I.I.I.I.I.I.4 4   X 9.q.9./ g P >.h.l.>.g k ",
".X0 +.' >.7.4.` U ! K ^ S.S.%X%Xp 4 E E 4 8 I.I.I.I.I.I.I.I.I.I.I.I.8 4 E E 4 p %X%XS.S.h P >.l.l...h ^ ",
"|.q U ' 4.q.4.` U ! ` / S.S.%X%Xp 4 E E 4 4 I.I.I.I.I.I.I.I.I.I.I.I.4 4 E E 4 p %X%XS.S.) ' >.c.l.' h k ",
"].c U ' 6.q.4.` U +.e.y.;X;X;X;Xa 4 E E E E I.I.I.I.I.I.I.I.I.I.I.I.E E E E 4 a ;X;X;X;Xy.e.>.l.c...g i ",
"|.c _ #.0.p.4.` U +.e.y.;X;X;X;Xa 4 E E E E I.I.I.I.I.I.I.I.I.I.I.I.E E E E 4 a ;X;X;X;Xy.e.1.l.c.>.h k ",
"/.c +.' >.7.4.] _ ! ] ` y.y.S.S.7 4 E E 4 4 E E I.I.I.I.I.I.I.I.E E 4 4 E E 4 7 S.S.y.y.6.,.1.h.c.>.g u ",
"/.c +.' ] ] ] ` U ! ' ` e.e.S.S.x z E E 4 4 E E I.I.I.I.I.I.I.I.E E 4 4 E E z x S.S.e.e.6.,.$.@.;.' ( u ",
"/.c +.' ^ ^ ^ M U ! ' _ ^ $.e.u.{.{.z 4   X E E E E I.I.I.I.E E E E X   4 z {.{.u.e.S 9.J.,.#.D +.K ( i ",
"/.c _ ' ^ ^ ^ ^ _ #.' _ _ ] e.u.}.}.x 6   X E E E E I.I.I.I.E E E E X   6 x }.}.u.e.` q.0.,.$.+.@.K ( i ",
"/.c U ' ] { =.$.1.1.' _ K _ o ; ).).t.w.. X E E E E E E E E E E E E X . w.t.).).; o ` 4. .:.1.&.h.$.( i ",
"/.c +.:.6.7.9.q.k.k._ _ K K X ; (.(.t.e.. X E E E E E E E E E E E E X . e.t.(.(.; X A ` K T 1.h.c.>.P i ",
"/.n +.:.6.7.9.q.k.k.' ' ^ ^ _ K ; : S.S.+   4 4 E E E E E E E E 4 4   + S.S.: ; K ' _ ` g T 1.h.c.>.P i ",
"/.n _ #.>.o.4.8.k.g.' ] ' ' ' _ X % S.S.+   4 4 E E E E E E E E 4 4   + S.S.% @ M _ $.$.' :.1.h.h.:.P i ",
"^.N +._ ( k k 4.0.3.>.0.l.4.K i ' 0.% +       X E E E E E E E E X       + % ^ _ _ K / 4.3.k.k.0.q...K V ",
"^.c +.K ^ k / 4.0.>.0.0.0.:.K K ' 0.@ X       X E E E E E E E E X       X @ K _ _ K k 4.3.k.k.0.q...K m ",
"/.c #._ ^ k ) 4.0.>.0.0.0.>.' ' X @ E E 4 4     4 4 E E E E 4 4     4 4 E E X X ' ' ) 0.0.k.1.>.6...P V ",
"'.c &.' ^ / ) 4.0.>.4.0.0.0.0.8.o o 2.2.4 4 X X 4 4 E E E E 4 4 X X 4 4 2.2.O O >.8.{ q.k.g.&._ ] ( K m ",
"'.c #.K ^ / / 4.0.3.4.0.0.0.@ o 1 3 :X:XZ 4 E E X X E E E E X X E E 4 Z :X:Xb.b.O @ 5.q.0.g.#.M ^ j ( M ",
"|.c +.K ( ) ) ..0.3.4.0.0.>.o . 2 3 :X:XZ 6 E E X X E E E E X X E E 6 Z :X:Xb.b.O o 5.q.3.k.&.K ^ ( ' D ",
"@XN &.' ..o.] ] :.' >.0.@ o w.e.e.e.< < e.e.E E X   4 4 4 4   X E E e.e.< < e.e.e.w.o @ 1.g.1.^ ' ( g V ",
"-XN k.0.K.L.o.' K J $.q.X . y.y.e.e.. . e.e.R E o . 4 4 4 4 . o E R e.e.. . e.e.y.y.. X :.g.1.K ^ j P +.",
"$XN 0.0.6.7.{ ^ K U 4.0.X = ;X;X%X%Xp 4 I.I.e.e.e.w..     . w.e.e.e.I.I.4 p %X%X;X;X= X 1.1.#.` / ( K V ",
"$Xn $.>.6.7.5.] P U 4.0.@ , ;X;X%X%Xp 4 I.I.e.e.e.e.# @ @ # e.e.e.e.I.I.4 p %X%X;X;X, @ 0.1.#._ ^ ( K V ",
"OXc _ ' o.7.4.' K J 4.0.q.>.> = * *   @ I.I.I.I.I.I.I.I.I.I.I.I.I.I.I.I.@   * * = , 5.9.k.1.#._ ^ j P V ",
"OX0 U ' o.7.4.' K I 4.0.0.$.X         @ I.I.I.I.I.I.I.I.I.I.I.I.I.I.I.I.@       X @ o.0.k.g.#.^ ^ j ' D ",
"oX0 ' ..6.7.7.>.#.:.:.:.:.] ^ K X   1 1 @ $ E E I.I.I.I.I.I.I.I.E E $ @ 1 1     4.>.{ 4.k.1.#.^ ^ ( ' V ",
"oX0 _ ' o.7.7.4.1.k.' ^ ^ ' _ K X o 1 1   X E E I.I.I.I.I.I.I.I.E E X   1 1 o X ' ^ ) >.0.1.#.^ ^ ( P V ",
"OXe _ ' ..7.9.4.0.k.' K K ' ' ^ ' 8.o   1 2 e.e.e.e.# @ @ # e.e.e.e.2 1   X K K _ K ) 4.k.g.&._ ^ ( ' V ",
"@Xc ' ' o.7.7.4.0.k.$.^ ^ ] ] _ ] 0.@ o 1 2 e.e.e.w.o     o w.e.e.e.2 1 o X _ _ ] _ ) 4.k.k.&._ ^ ( ' D ",
" Xi } X.} J T G.F.D.T U K P K g J } f R X   . . . o L ~ L H o . . .   o d.f.f.a.Q Q f R F.F.R K P j F.} ",
"+XA 6.:._ M _ 1.J.G.$.#.+._ K K K K K ] @ X X X   X U #.K K X     X X @ 0.h.k.1.+.+._ ,.J.,.' ` ` ' K.>.",
"#Xe m.9.@.F *.;.q.K.' ' _ U _ ' +.` ` ;.;.j.j.-.G D ` *.` ` ` s s 9.o.7.o.o.4...^ ( G ;.k.0.@.G @.$.>.8.",
"*X/ L.5.$.*.-.*.] ' j j j P ( ' ] 4.8.8.@.@.;.*.G G @.@.S ` ] s k 7.7.6.X.| | l j j G @.$.$.@.-.;.4.K.K.",
"&X| P.H.q.m.m.=.( h } j R } P g P 6.6.6.' M ^ _ ^ ` %._ V #.$.^ ' 0.,.X.( g h f f f @.` ( ' 4.j.l.H.H.H.",
" X) O.o.] *.G S w t t w w t w 5 t ^ ^ ^ t 5 9 t 9 t v q q y y q y V %.+.A y m m m S x e 8 t A G ` ^ | 6."
};
