/* XPM */
static char *ac860f5e5983494bab202f1fec7b50ce[] = {
/* columns rows colors chars-per-pixel */
"52 52 201 2 ",
"   c #010402",
".  c #090302",
"X  c #010B03",
"o  c #0A0C03",
"O  c #02050B",
"+  c #120B04",
"@  c #031203",
"#  c #051904",
"$  c #1C1406",
"%  c #1B150E",
"&  c #1B1A10",
"*  c #221707",
"=  c #231E17",
"-  c #103F1B",
";  c #222302",
":  c #282017",
">  c #001522",
",  c #232222",
"<  c #322E27",
"1  c #49281F",
"2  c #4A2920",
"3  c #0D430E",
"4  c #0A4A0E",
"5  c #13450F",
"6  c #11480F",
"7  c #0F4911",
"8  c #0C441B",
"9  c #0C4A1B",
"0  c #134E14",
"q  c #154719",
"w  c #07561F",
"e  c #145115",
"r  c #12511D",
"t  c #195718",
"y  c #1C5B1D",
"u  c #214616",
"i  c #26491D",
"p  c #225D1E",
"a  c #0C6818",
"s  c #16631B",
"d  c #1B651C",
"f  c #14681A",
"g  c #1D6A1E",
"h  c #17721A",
"j  c #23621E",
"k  c #23721F",
"l  c #174B24",
"z  c #144C24",
"x  c #0C5423",
"c  c #0D5C25",
"v  c #165127",
"b  c #1B5523",
"n  c #1C5D23",
"m  c #1A572C",
"M  c #1D5B2A",
"N  c #1B5834",
"B  c #245D23",
"V  c #265828",
"C  c #225C2C",
"Z  c #255B33",
"A  c #2B5D32",
"S  c #0D6725",
"D  c #136426",
"F  c #1D6324",
"G  c #106926",
"H  c #1E6A24",
"J  c #14642B",
"K  c #1D652C",
"L  c #156A2B",
"P  c #1C6B2C",
"I  c #1D7725",
"U  c #117A29",
"Y  c #1B6632",
"T  c #196736",
"R  c #1C6A32",
"E  c #1D7233",
"W  c #226424",
"Q  c #2A6524",
"!  c #226A23",
"~  c #2A6A24",
"^  c #23652A",
"/  c #2A642B",
"(  c #246B2B",
")  c #2A6C2D",
"_  c #356928",
"`  c #336D2B",
"'  c #227425",
"]  c #2A7423",
"[  c #23722C",
"{  c #2B722D",
"}  c #257C28",
"|  c #2B7D2A",
" . c #33742E",
".. c #377B2E",
"X. c #236632",
"o. c #2C6534",
"O. c #256B33",
"+. c #2B6D32",
"@. c #286739",
"#. c #2A6E3A",
"$. c #316534",
"%. c #326C33",
"&. c #36693B",
"*. c #336C3B",
"=. c #247233",
"-. c #2C7233",
";. c #2C7B34",
":. c #25733C",
">. c #2C733B",
",. c #257B38",
"<. c #2D7A3C",
"1. c #327535",
"2. c #3A7533",
"3. c #337A34",
"4. c #3A7934",
"5. c #337539",
"6. c #3B753A",
"7. c #357A3B",
"8. c #3B7C3C",
"9. c #71401F",
"0. c #76491F",
"q. c #734322",
"w. c #774A20",
"e. c #784923",
"r. c #774829",
"t. c #42743B",
"y. c #417D3C",
"u. c #286A45",
"i. c #3C6E4A",
"p. c #2A7642",
"a. c #297544",
"s. c #2D7B41",
"d. c #357342",
"f. c #3B7542",
"g. c #337B43",
"h. c #3A7A43",
"j. c #3F714D",
"k. c #347A48",
"l. c #3C7B49",
"z. c #387F51",
"x. c #335272",
"c. c #3D5977",
"v. c #4A6B4E",
"b. c #417749",
"n. c #547B4E",
"m. c #466D54",
"M. c #477755",
"N. c #477956",
"B. c #497B57",
"V. c #56785A",
"C. c #A57D41",
"Z. c #A47D4B",
"A. c #19811E",
"S. c #26842A",
"D. c #2B8135",
"F. c #378837",
"G. c #34833A",
"H. c #3A843D",
"J. c #41823B",
"K. c #49943F",
"L. c #41A329",
"P. c #4BA529",
"I. c #378447",
"U. c #3F925A",
"Y. c #4A8F50",
"T. c #4F815C",
"R. c #50825D",
"E. c #568565",
"W. c #659371",
"Q. c #71957B",
"!. c #729A7D",
"~. c #FDFD03",
"^. c #FEFE0E",
"/. c #FFFE17",
"(. c #A78041",
"). c #A88241",
"_. c #A88049",
"`. c #DDAC51",
"'. c #3B579D",
"]. c #42599D",
"[. c #779D82",
"{. c #7EA789",
"}. c #7DB28D",
"|. c #09B8FC",
" X c #26BAFC",
".X c #82AA8D",
"XX c #89B489",
"oX c #93A996",
"OX c #8DB495",
"+X c #91B699",
"@X c #9AB799",
"#X c #94BA9D",
"$X c #A2BC9F",
"%X c #98BCA2",
"&X c #D4B38A",
"*X c #97C98A",
"=X c #A3C89C",
"-X c #99C2A4",
";X c #A0C4AA",
":X c #FEE5BC",
">X c #FDFDFD",
/* pixels */
"oXW.E.E.V.V.V.V.m.m.M.b.i.j.B.R.B.j.N.B.T.R.T.T.B.M.N.j.b.N.B.B.B.b.i.i.M.N.B.M.j.i.v.v.m.M.V.V.n.T.W.W.",
"[.u.z.p.#.*.o.C v m c c J R p.p.R c x c J Y Y J c w J x c J R a.a.Y c J R :.a.R T J C M m N Z &.1.1.=.@.",
"}.z.U.I.<.7.7.O.P E L D L =.s.s.:.R L E ,.s.<.:.R L L D L L E s.<.L D L E ,.<.E L L ( K Y T #.5.8.G.Y.I.",
"}.X.I.,.[ [ [ [ =.,.=.^ F ^ ) =.=.-.( ) =.7.7.{ ! F { { -.-.-.7.7.( W ) =.7.7.-.) ) -.( Y R #.+.{ | G.>.",
"OXb g.-.! j ~ { ;.D.) W p B W B / 1.6.6.U U L.L.L.L.L.L.5 3 U U q.q.C.C.` 8.y.4.1.4.2.( F K X.W j k ;.=.",
"@XA h.1.Q p Q  .7.7./ B B Q Q W ) 6.8.6.U U L.L.L.L.L.L.3 3 U U w.w.C.C._ t.y.2.4.8.8.) M X.o.B j ~ 3.5.",
"@XV f.%.Q Q _ ` 1.{ ) ) ) ) / W U U U U L.L.L.L.L.L.L.L.3 3 L.P.~.~.~.~.`.`.C.C.1.) ` / ^ X.$.%._ ~ 1.$.",
"oXq o./ W Q Q / ( ^ <.<.<.-.P K U U U U L.L.L.L.L.L.L.L.6 6 P.P.~.~.~.~.`.`.C.C.) ( Q ^ K X.*.6.2.{ P ^ ",
"OX- C K W W W W F D 7.7.7.=.3 3 U U L.L.L.L.L.L.L.L.6 6 L.P.`.`.`.`.(.C.C.C.~.~.C.C.Q F P T #.l.8.;.D K ",
"+Xz @.R K ^ ^ K L L >.g.g.O.3 3 U U L.L.L.L.L.L.L.L.3 3 L.P.`.`.`.`.C.C.C.C.~.~.).C.Q ( L T :.l.7.=.S T ",
"OXz k.O.K F ^ P L L %.h.5 3 U U U U U U L.L.L.L.L.L.3 3 L.P.C.(.~.~.C.C.`.`.C.).~.~.C.C.P T :.g.7.[ S T ",
"+XZ l.-.F W ^ K L L %.8.3 3 U U U U U U L.L.L.L.L.L.6 6 P.P.C.C.~.~.(.C.`.`.C.(.~.~.C.C.^ Y #.h.8.=.D Y ",
"@XA l.+./ / ) W F L { 7.3 3 U U U U U U 3 3 3 3 3 6 L.P.~.~.C.C.~.^.&X&Xe.w.`.`.~.~.w.q.W X.*.t.6.1.F X.",
"@XV f.%.%.2.%./ F P -.7.3 3 U U U U U U 3 3 3 3 3 3 L.P.~.~.C.C.~.^.&X&Xr.e.`.`.~.~.w.q.W X.6.t.2. .n o.",
"-XM l.7.3.8.6.+.K K 3 3 U U U U U U U U U U U U 3 3 U | ~.~.C.C.C.(.&X&X&X&Xe.q.C.C.6.) H H +.h.h.) d W ",
"-XZ g.7.3.8.6.) K K 3 3 U U U U U U U U U U U U 3 3 I | ~.~.).C.C.C.&X&X&X&Xr.q.C.C.6.) H H +.d.h.{ g W ",
"#Xv >.-.1.4.2.) K K 3 3 U U U U 3 3 3 3 U U 3 3 U I C.C.C.).~.^.&X&X:X:X&X&X% o 1.5.6.( d H +.d.h.-.d j ",
"OX8 O.) -.4.2.) K R 3 3 U U U U 3 3 3 3 U U 3 3 U I C.C.C.C.~.^.&X&X:X:X&X&X% X 5.5.6.W s H -.d.f.-.d j ",
".X8 X.( -.4.1./ K Y X X U U 3 3     3 3 3 3 U U 3 5 q.q.C.C.~./.:X:X< = r.r.. X 7.7.6.W s H >.h.h.{ d W ",
".X9 K ( 1.8.2./ K R   X U U 3 3     3 3 i i ;.;.u u q.q.C.C.~./.:X:X< , q.q.% & -.-.5.( H ( -.l.h.) d j ",
"{.z K ) 3.8.2./ K R     3 3 3 3     3 i :X:X:X:X&X&Xr.q.`.`.C.(.:X:X>X>X'.'.&X&X& X o.-.;.-.-.h.l.{ d y ",
".Xz ^ O.7.y.2./ K R     3 3 3 3 X X 3 i :X:X:X:X&X&Xr.q.`.`.C.C.:X:X>X>X'.'.&X&X%   / 5.H.3.>.h.l.-.d j ",
"!.z X.( -.4.2.) ^ Y X X U U X X -.5.X + C._.:X:X:X:X= ; ~.~.w.r.:X:X>X>X'.'.&X&X%   / 6.3.;.>.d.l.-.d t ",
"!.z X.^ ) ) ) / K Y   X U U X X -.5.X + C.C.:X:X:X:X= ; ~.~.w.r.:X:X>X>X].].&X&X& X C 5.3.;.O.o.*.( ! t ",
"!.z X.^ W W W n K R     3 3   X -.5.X   + $ C.Z. X X> ; ~.~.w.r.:X:X:X:X&X&X: & F ^ B 7.G.;.O.C X.F ! y ",
"!.z ^ ^ W W W W ^ O.X X 3 3 X @ -.7.; ; $ * C.Z.|.|.> ; ~.~.w.r.:X:X:X:X&X&X& @ F ^ / 8.7.<.O.X.o.F ! y ",
"!.z K ( ) ` %.+.>.>./ ^ X X +.) +.y.~.~.`.`.* + > >   ; ~.~.w.r.&X&X&X&X: & 7.5.F ^ / 1.[ =.>.#.d.+.! y ",
"!.v X.=.3.4.8.8.g.g.^ ^ X X ^ W ( y.~.~.`.`.$   X X   ; ~.~.0.r.&X&X&X&X& @ 7.5.F ( B / F P >.d.l.-.F y ",
"!.v X.=.3.4.6.8.g.g.( ( W W ^ F ( 7.8.y.$ $ 3 3 U U X $ `.`.* . u u % & 5.-.5.-.F ( ^ / s P >.d.l.-.F y ",
"!.v ^ O.{  .1.5.g.s.( ) ( ( ( ^ ( 7.5.5.    3 3 U U o * `.`.$ X 3 3 X @ -.+.-.+.F ^ o.+.^ =.>.d.d.=.F y ",
"Q.m X.^ ! j j 1.7.<.-.7.h.5.F y ( 8.7.5.X X U U @ o 9.9.* $ U U U U U U @ X ^ ^ ^ F Q 2.<.g.g.7.8.{ F M ",
"Q.z X.F W j Q 1.7.-.7.7.7.=.F F ) 7.7.5.X X U U X . q.q.o @ U U U U U U ; ; F ^ ^ F j 2.<.g.g.7.8.{ F b ",
"!.z O.^ W j ~ 1.7.-.7.7.7.-.( ( ) -.5.-.X X U U X X U U U U @ @ U U U | ~.~.; X ( ( Q 7.7.g.>.-.3.{ H M ",
"[.z #.^ W Q ~ 1.7.-.5.7.7.7.7.7.-.^ W ( @ @ U U X X ,.,.,.,.X X U U U | ~.~.; X 1.5.` 8.g.s.#.^ ) ! F b ",
"[.z O.F W Q Q 1.7.<.5.7.7.7.8.h.-.F X @ U U q.q.. , >X>X>X>X, . q.q.q.q.| } X X 5.h.2.8.7.s.O.n W g ! M ",
".Xz X.F ! ~ ~ { 7.<.5.7.7.-.5.8.5.F   X U U q.q.. , >X>X>X>X, . q.q.q.q.U U X   1.7.2.8.<.g.#.F W ! ( C ",
"#Xm #.) {  .) ) =.( -.7.7.-.-.8.5.W   X U U L.L.@ O c.c.c.c.O @ L.L.L.L.L.L.@ X -.7.2.7.>.s.>.W ( ! s M ",
";Xm g.7.H.J. .( F D +.8.I.7.7.I.5.F X @ U U L.L.@ O x.x.x.x.O @ L.L.L.L.L.L.# @ 5.7.2.2.=.s.>.F W g H X.",
"%Xm 5.7.3.4.` W F K 5.7.7.5.7.7.-.^ ^ ^ @ # L.L.@ . q.q.q.q.. X U U L.L.# # ^ ( 7.7. .2.<.>.O./ Q ! F M ",
"%Xv O.-.3.4.2.) K K 5.7.7.5.+.) +.) -.-.@ # L.L.@ . r.r.r.r.. X U U L.L.# X ^ ( 5.5.2.7.g.>.O.^ W ! F M ",
"+Xz ^ )  .4.1.( F D 5.7.8.-.W F ) 5.7.7.7.7.# @   % &X&X:X:X=   X X @ # F ^ ^ ( 7.7.2.6.g.>.O.^ W g H M ",
"+X8 K (  .4.1.( F J 5.7.7.=.F F ) 8.7.7.7.7.@ X   % &X&X:X:X=       . o F ^ ( +.8.7. .7.g.s.O.W W g ^ C ",
"OX8 ( { 3.4.4.+.O.=.=.=.=.) W F ) 7.5.5.7.7.5.)     % % = = 2 2 2 2 q.9.o X ^ ( 5.-.` 5.g.>.O.W W ! ( M ",
"OX8 ^ )  .4.4.5.>.g.( W W ( ^ F ( 5.7.5.7.7.5.) X           2 2 2 2 q.q..   ^ F ( W Q -.7.>.O.W W ! H M ",
"+Xq ^ ( { 4.4.5.7.g.) F F ( ( W ( 7.7.5.7.7.5.) W F         2 2 9.q.q.q..   ^ F ^ F Q 1.g.s.#.^ W ! ^ M ",
"#Xz ( )  .4.4.5.7.g.+.W W ) ) ^ ) 7.5.5.7.7.7.) ^ W X       1 2 9.9.q.9.o X ^ ^ ) ^ ~ 1.g.g.#.^ W ! ( C ",
"XXy ' } ' H P D.S.A.P K F H F d H ' f I } S.S.h a h G E G a X   . . . o p.a.a.u.T T a I S.S.H F H g S.' ",
"@XB 3.=.^ n ^ >.G.D.O.O.( ^ F F F F F ) -.7.8.{ d F K O.F F X     X X @ 7.d.g.>.X.X.^ ;.G.D.) / ^ ) H.-.",
"$Xq Y.6.o.Z $.*.8.H.( ( ^ K ^ ( X./ / *.*.f.b.&.Z C / $./ / / p p 4. .4. . .3.{ W W A *.g.5.o.A o.+.-.5.",
"=XQ J.2.o.$.&.$.) ( g g g H ! ^ ) 1.5.5.o.o.*.$.A A o.o.A / ) p j 4.4.3.| ] ] k g g A o.+.+.o.&.*.5.H.H.",
"*X] K.F.8.b.b.%.! d ' g H ' H d H 3.3.3.( n W ^ W / @.^ M O.+.W ^ 7.;.{ ! d d f f f o./ ! ) 5.h.8.F.F.F.",
"XXQ .. .) $.A V 0 e e 0 0 e 0 4 e W W W e 4 0 e 0 e x 9 9 r r 9 r M @.X.C r b b b V l q 7 e B A / W ] 3."
};
