/* XPM */
static char *_85a932e52a14f3d8758ce1cc4a21dcb[] = {
/* columns rows colors chars-per-pixel */
"52 52 197 2 ",
"   c black",
".  c #103F1B",
"X  c #0A4A0E",
"o  c #005B00",
"O  c #0F4D12",
"+  c #0C441B",
"@  c #0C4A1B",
"#  c #134E14",
"$  c #16471B",
"%  c #07561F",
"&  c #145115",
"*  c #12511D",
"=  c #195718",
"-  c #1C5B1D",
";  c #225D1E",
":  c #285F1C",
">  c #0C6818",
",  c #136417",
"<  c #16631B",
"1  c #1B661C",
"2  c #14691A",
"3  c #1D6A1E",
"4  c #17721A",
"5  c #23631E",
"6  c #26681E",
"7  c #23721F",
"8  c #104720",
"9  c #144C24",
"0  c #1B4D26",
"q  c #0C5423",
"w  c #0D5C25",
"e  c #165127",
"r  c #1B5523",
"t  c #1C5E22",
"y  c #1E552D",
"u  c #125B2B",
"i  c #1D5B2A",
"p  c #1B5834",
"a  c #225425",
"s  c #235D24",
"d  c #2A5827",
"f  c #225C2C",
"g  c #295E2D",
"h  c #245A31",
"j  c #2B5D32",
"k  c #275F3A",
"l  c #0D6725",
"z  c #146526",
"x  c #1D6325",
"c  c #106A26",
"v  c #1D6A24",
"b  c #14642B",
"n  c #1D652C",
"m  c #156A2B",
"M  c #1C6A2B",
"N  c #1E7222",
"B  c #1E7C24",
"V  c #1C722E",
"C  c #166430",
"Z  c #1A6533",
"A  c #166932",
"S  c #1C6A32",
"D  c #1B633C",
"F  c #1E6C38",
"G  c #1D7233",
"H  c #226425",
"J  c #2A6524",
"K  c #226A23",
"L  c #2A6A24",
"P  c #23652A",
"I  c #2A652B",
"U  c #246A2B",
"Y  c #2A6C2D",
"T  c #346B24",
"R  c #326D2B",
"E  c #227425",
"W  c #2A7423",
"Q  c #23722C",
"!  c #2B722D",
"~  c #247B28",
"^  c #2C792C",
"/  c #33742E",
"(  c #377B2E",
")  c #236632",
"_  c #2C6534",
"`  c #256B33",
"'  c #2B6D32",
"]  c #2E603A",
"[  c #256A39",
"{  c #2A6E3A",
"}  c #316534",
"|  c #326D33",
" . c #33663A",
".. c #336C3B",
"X. c #3C6E3D",
"o. c #257233",
"O. c #2C7333",
"+. c #207935",
"@. c #2D7A34",
"#. c #25733C",
"$. c #2C733B",
"%. c #267A3B",
"&. c #2D7A3C",
"*. c #337435",
"=. c #3A7534",
"-. c #337A34",
";. c #3A7934",
":. c #337639",
">. c #3A763B",
",. c #347A3C",
"<. c #3B7B3C",
"1. c #42733D",
"2. c #407D3D",
"3. c #286A45",
"4. c #3C6E4A",
"5. c #277541",
"6. c #2A7642",
"7. c #2D7B41",
"8. c #2D764B",
"9. c #357342",
"0. c #3B7542",
"q. c #337B43",
"w. c #3B7B43",
"e. c #3F714D",
"r. c #347A48",
"t. c #3C7B49",
"y. c #387F51",
"u. c #575857",
"i. c #4A6B4E",
"p. c #407547",
"a. c #427C44",
"s. c #40724F",
"d. c #547B4E",
"f. c #466D54",
"g. c #437551",
"h. c #477956",
"j. c #497B57",
"k. c #487159",
"l. c #4A7C59",
"z. c #517654",
"x. c #53795C",
"c. c #5B7C5C",
"v. c #19811E",
"b. c #00A300",
"n. c #25832A",
"m. c #26842A",
"M. c #2B8232",
"N. c #2D803A",
"B. c #368534",
"V. c #34823B",
"C. c #3A843D",
"Z. c #378A38",
"A. c #41823B",
"S. c #49943F",
"D. c green",
"F. c #348042",
"G. c #3B8041",
"H. c #34864A",
"J. c #3F925A",
"K. c #50824D",
"L. c #4F815C",
"P. c #50825D",
"I. c #5A895E",
"U. c #449C52",
"Y. c #568565",
"T. c #609A67",
"R. c #618770",
"E. c #6A9676",
"W. c #71957B",
"Q. c #729A7D",
"!. c #5CFF5C",
"~. c #7F9580",
"^. c #759C81",
"/. c #7B9F85",
"(. c #7EA789",
"). c #7DB28D",
"_. c gray62",
"`. c #82AA8D",
"'. c #8BB685",
"]. c #86AF91",
"[. c #96AA99",
"{. c #8DB495",
"}. c #95B296",
"|. c #9AB195",
" X c #91B699",
".X c #94BA9D",
"XX c #9DBD9C",
"oX c #A2BC9F",
"OX c #98BCA2",
"+X c #97C98A",
"@X c #A3C89C",
"#X c #99C2A4",
"$X c #A0C4AA",
"%X c #A3FFA3",
"&X c #CDD6CE",
"*X c #E6E6E6",
"=X c white",
/* pixels */
"[.R.Y.Y.x.c.c.z.f.k.g.s.4.e.j.P.l.e.h.l.L.P.L.L.j.g.h.e.s.h.j.l.j.s.4.4.g.h.j.g.e.4.i.i.f.k.x.z.d.K.T.E.",
"^.3.y.6.{ .._ f e u w w b F 6.6.S w q w b Z Z b w % b q w b F 5.#.Z u b F #.#.F C b g y p p k  .*.*.o.[ ",
").y.J.H.&.,.,.` M G z z m +.7.7.+.S m G %.7.&.+.S m m z z m G 7.&.m z m G %.&.G m z U n Z F { >.<.V.U.H.",
").) H.%.Q Q Q Q o.+.o.P x P U o.o.O.U U o.,.,.U x x U ! O.O.O.,.,.P x K o.,.,.O.U U O.U Z S { ' ! ^ Z.$.",
"{.r q.O.K 5 L ! @.N.Y H ; s H s I *.>.>.<.2.<.*.Y I R *.<.>.*.<.>.J J J R <.2.>.*.>.=.U x n ) H 5 6 @.o.",
"}.j w.*.J ; J / ,.,.I s s J J H Y >.<.>.>.>.=.Y H H Y *.<.>.*.<.<.J H H Y >.<.>.>.<.<.Y x ) _ d : L -.:.",
"|.d 0.| J J T R *.! Y Y Y Y I H Y ,.,.:.*.:.*.Y U I Y >.*.*.-.*.*.K H H Y *.,.*.O.Y R I P ) } } R L *.} ",
"[.$ _ I H J J I U P &.&.&.O.M n o.,.&.&.,.q.,.o._.      &.&.,.&.,.U x M o.&.,.O.U v J P n )  .>.=.! M P ",
"}.. f n H H H H x z ,.,.,.o.n z ` &.&.&.,.F.,.o._.u.u.o &.,.,.&.,.U x M o.,.,.O.M x x x M Z { t.<.@.z n ",
" X8 [ S n P P n m m $.q.q.' n t ` $.$.$.:.q.u.  *X*X%XD.b.  _.:.:.P P P ' :.,.O.U U 1 M A A #.w.,.+.l A ",
"{.9 r.o.n x P M m m | w.w.*.P P I ' I ' :.>._.  *X*X%XD.b.  _.>.>.I P I ' >.<.:.Y I 1 M m A #.q.,.Q l A ",
" Xh t.O.x H P n m m | <.w.| I P P H s I u.  >.*X*X*X%XD.D.D.b.  _.' H I | w.w.:.I s 5 v z Z { w.<.+.z Z ",
"XXj t.' I I Y H x m ! ,.<.! K U K x x H u.  &X*X*X*X%XD.D.D.b.  _.U x P ' :.,.O.U P T J x ) ..1.>.*.x ) ",
"XXa 0.| | =.| I x M O.V.V.O.U O.O.P     *X*X*X*X*X&X%XD.D.D.D.D.O.  _.x M U o.o.O.O.T L H ) X.1.=./ t _ ",
"#Xy t.,.-.<.>.' n n *.,.,.,.w.<.O.U     *X*X*X*XI.w.%XD.D.D.D.D.P   _.H x x x U O.w.:.Y v v ' 0.w.U 1 H ",
"#Xh q.,.-.<.>.Y n n :.,.,.,.,.,.u.u.*X*X%X!.*X*X%X!.!.o ,.D.P o b.H !.u._.P P U O.w.>.Y v v ' 9.w.! 3 H ",
".Xe $.O.*.;.*.Y n n O.O.' O.,.,.    *X*X!.D.*X*X%XD.b.  w.D.b.  b.D.U   u.' ' ' O.:.>.U 1 v ' 9.w.O.1 5 ",
"{.+ ` U O.;.*.Y n S P H H Y :.,.    *X*X*X*X%X!.!.D.,.,.b.o b.x P D.P   u.*.:.:.:.:.>.H < v O.9.0.O.1 5 ",
"].+ ) U O.;.*.I n S x t x ' ,.,.    *X*X*X*X!.D.D.D.D.D.b.  b.D.D.D.t   u.:.w.<.,.,.>.H < v O.w.w.! 1 H ",
"`.@ P U *.<.*.I n S P x P O.,.,.    *X*X*X*X!.D.D.D.D.D.b.  b.D.D.D.U   u.,.<.,.O.O.:.U v U O.t.w.U 1 5 ",
"(.8 n U -.<.*.I n S U H P O.,.,.    *X*X*X*X!.D.D.D.D.D.b.  b.D.D.D.,.  u.,.,.O.P x ' O.@.O.O.w.t.! 1 - ",
"`.8 P ` ,.2.*.I n S P x H ' :.,.    *X*X*X*X!.D.D.D.D.D.b.  b.D.D.D.,.  _.,.:.' P H I :.C.,.$.w.t.O.1 5 ",
"Q.9 ) U O.;.*.Y P S U P x U ,.,.    *X*X*X*X!.D.D.D.D.D.b.  b.D.D.D.,.  u.:.,.*.x P I >.-.@.$.9.t.O.1 = ",
"Q.9 ) P Y Y Y I n S U P x Y ,.,.    *X*X*X*X!.D.D.D.D.D.b.  b.D.D.D.,.  u.:.,.:.x U f :.-.@.' _ ..U K = ",
"Q.9 ) P H H H t n S U P H ' ,.,.    *X*X*X*X!.D.D.D.D.D.b.  b.D.D.D.,.  u.:.,.:.x P s ,.V.@.` f ) x K - ",
"Q.9 P P H H H H P ` U P P Y :.:.    *X*X*X*X!.D.D.D.D.D.b.  b.D.D.D.,.  u.:.,.*.x P I <.,.&.' ) _ x K - ",
"Q.9 n U Y R | ' $.$.U P x P ' Y     *X*X*X*X!.D.D.D.D.D.b.  b.D.D.D.,.  u.:.,.:.x P I *.Q o.$.{ 9.' K - ",
"Q.e ) o.-.;.<.<.q.q.P P x x P H     *X*X*X*X!.D.D.D.D.D.b.  b.D.D.D.<.  u.:.,.:.x U s I x M $.9.t.O.x - ",
"Q.e ) o.-.;.>.<.q.q.U U H H P x     *X*X*X*X!.D.D.D.D.D.b.  b.D.D.D.,.  u.*.:.O.x U P I < M $.9.t.O.x - ",
"Q.e P ` ! / *.:.q.7.U Y U U U P     *X*X*X*X!.D.D.D.D.D.b.  b.D.D.D.,.  u.' O.' x P ' ' P o.$.9.9.o.x - ",
"W.y ) P K 5 5 *.,.&.O.,.w.*.x -     *X*X*X*X!.D.D.D.D.D.b.  b.D.D.D.,.  u.P P P P x J *.&.q.q.,.<.! x i ",
"W.9 ) x H 5 J *.,.O.,.,.,.o.x x     *X*X*X*X%X!.!.D.D.D.b.  b.D.D.D.,.  u.P x P P x 5 *.&.q.q.,.<.! x r ",
"Q.9 ` P H 5 L *.,.O.,.,.,.O.U U     *X*X!.D.P Y %XD.D.D.b.  b.D.D.D.,.  u.P x U U U L ,.,.q.$.O.-.! v i ",
"^.9 { P H J L *.,.O.*.,.,.,.,.,.    *X*X!.D.*.*.%X!.!.~.!.u.!.x x D.<.  u.P P Y *.:.R <.q.7.{ P Y K x r ",
"/.8 ` x H J J *.,.&.*.,.,.,.<.w.    D.D.D.D.D.D.=X=X_.  z.~.x   b.D.w.  u.H x ' ,.w.=.<.,.7.` t H 3 K i ",
"`.9 ) x K L L ! ,.&.*.,.,.O.:.<.u.u.D.D.D.D.D.D.=X=X_.o [.z.~.o b.D.,.u._.x x U *.,.=.<.&.q.{ x H K U f ",
".Xy { U ! / Y Y o.U O.,.,.O.O.<.*.H     O.D.D.D.D.D.D.D.D.D.D.D.'   _.' U x x U O.,.=.,.$.7.$.H K K < i ",
"$Xy q.,.C.A./ U x z ' <.G.,.,.G.*.x     O.D.D.D.D.D.D.D.D.D.D.D.O.  _.P P P P ' :.,.=.*.o.7.$.x H 3 v ) ",
"OXy :.,.-.;.R H x n *.,.,.:.,.,.O.P P U u.  ,.D.D.D.D.D.D.D.b.  _.U x U P P P U ,.,./ *.&.$.` I J K x i ",
"OX0 ' O.-.;.=.Y n n *.,.,.*.' Y ' Y O.O.u.  ,.D.D.D.D.D.D.D.b.  _.U x Y P P P U :.:.=.,.q.$.` P H K x i ",
" X8 P U / ;.*.U x z *.,.<.O.H x Y :.,.,.,.,.u.o P D.D.D.b.o _.:.O.U x U H P P U ,.,.=.>.q.$.` P H 3 v i ",
" X+ n U / ;.*.U x b *.,.,.o.x x Y <.,.,.,.,.u.  P D.D.D.b.  _.:.*.Y t P x P U ' <.<./ ,.q.7.` H H 3 P f ",
"{.+ U ! -.;.;.O.` o.o.o.o.Y H x U ,.:.*.,.,.:.Y _.o o o U x ,.:.:.O.U ' P P P U :.O.R *.q.$.` H H K U i ",
"{.+ P U / ;.;.*.$.q.U H H U P x U :.,.:.,.,.:.Y _.      U x ,.,.,.O.:.,.Y U P x U H L O.,.$.` H H K v i ",
" X$ P U ! ;.>.*.,.q.U x x U U H U ,.,.:.,.,.*.Y H x P P U x ,.,.,.:.,.<.' U x x P x L *.q.7.{ P H K P i ",
".X9 U U / ;.;.:.,.q.' H H Y Y P Y ,.:.*.,.,.-.Y P H P P U x ,.,.,.:.*.:.U P P x Y P L *.q.q.{ P H K U f ",
"'.- E ~ E z M M.m.v.M n x v x 1 z E 2 N ~ n.n.4 > 4 c G c > V V z o.%.7.7.8.8.3.D D 2 B m.n.N x v 4 m.E ",
"XXs -.o.P t P $.V.M.' ` U P x x x x x U O.,.C.! 1 x n ` x x U H x *.,.w.,.9.q.$.) ) P @.V.&.U I I U C.O.",
"oX$ a.>._ h ] ..<.C.U U P n P U ) I I  ...0.p...j g I } I I I ; ; >./ ;./ / -.! H K j ..q.:._ j ] ' O.:.",
"@XJ A.=.' } ..} Y U 3 3 3 v K P Y *.:.:._ _  .} g j _ _ g I Y ; 5 ;.;.-.^ W W 7 3 3 j _ ' ' _  ...*.C.C.",
"+XW S.Z.<.a.a.| K 1 E 3 N E v 1 v -.-.-.U t H P H I [ P i ` ' x P ,.@.^ K 1 1 2 , 2 _ I P U *.0.<.B.B.B.",
"'.L ( / Y } j a # & & # # & # X & H H H & X O & O & q @ @ * * @ * i [ ) f * r r r a 0 $ O & s j I H W -."
};
